<?xml version="1.0" encoding="UTF-8"?>
<svg width="1233px" height="377px" viewBox="0 0 1233 377" version="1.1" xmlns="http://www.w3.org/2000/svg" xmlns:xlink="http://www.w3.org/1999/xlink">
    <!-- Generator: Sketch 42 (36781) - http://www.bohemiancoding.com/sketch -->
    <title>Slice</title>
    <desc>Created with Sketch.</desc>
    <defs></defs>
    <g id="Page-1" stroke="none" stroke-width="1" fill="none" fill-rule="evenodd">
        <g id="Cloud1" transform="translate(7.000000, 41.000000)" fill-rule="nonzero">
            <g id="Page-1">
                <g id="Cloud1" transform="translate(0.000000, 184.000000)">
                    <g id="Group" transform="translate(75.600893, 51.895400) scale(-1, 1) rotate(-180.000000) translate(-75.600893, -51.895400) translate(0.100893, 0.895400)" fill="#3E3E3E">
                        <path d="M70.2724548,100.117276 C63.9161527,97.5066562 59.2245961,90.1969205 58.5687871,81.7124055 C58.3165528,78.4491305 58.1652123,78.1880685 56.954488,78.1880685 C54.381699,78.1880685 51.7080161,76.7522275 49.5388018,74.1416075 C48.3280776,72.7057666 47.2182469,71.0088635 47.0669064,70.290943 C46.7642254,69.1161641 46.7137785,69.1161641 44.8976921,70.290943 C39.9539013,73.423687 33.3453645,73.7500146 28.0484458,71.074129 C23.1551019,68.5940401 18.3122048,61.9369591 17.0005868,55.8020022 C16.5465652,53.6482407 16.4456715,53.5829751 13.4188608,53.1913822 C4.94379081,52.2123997 -1.51340535,43.2057608 0.353127915,34.9823078 C1.81608642,28.7820853 7.36523941,24.0177038 13.9233292,23.4955798 C17.4041615,23.2345178 18.0095237,22.9734559 19.7751632,21.0154909 C21.6416965,18.9269949 24.2649324,17.4911539 26.2828062,17.4911539 C26.7368279,17.4911539 27.1404027,17.2300919 27.1404027,16.8384989 C27.1404027,15.6637199 30.3690007,11.5519934 32.3868745,10.1161525 C35.1110041,8.28871845 40.6601571,8.15818745 43.5860741,9.85509046 L45.6543947,11.095135 L48.0253965,8.09292195 C52.3133783,2.74115098 59.7795113,-0.652654996 65.5304517,0.130530999 C69.0112841,0.587389496 73.1479251,2.48008898 76.1242895,5.02544347 L78.34395,6.91814296 L81.8752294,5.35177097 C88.5846598,2.41482349 97.2110706,3.58960248 102.81067,8.22345295 C104.071841,9.26770098 106.241056,11.617259 107.704014,13.5099584 L110.32725,16.9037644 L112.748699,15.5331889 C116.229531,13.5752239 120.164385,13.183631 123.746111,14.4889409 C127.126049,15.7942509 128.589008,16.9037644 131.161797,19.9712429 C132.87699,22.0597389 133.129224,22.1902699 134.64263,21.4723493 C140.292676,18.9269949 146.800319,22.7123939 149.221768,29.9568643 C151.542323,37.0708038 149.01998,44.7068672 143.168146,48.1006732 C141.906975,48.8185937 140.040442,49.4712487 139.031505,49.4712487 C137.366759,49.4712487 137.114525,49.6670452 137.114525,50.9723551 C137.114525,51.7555411 136.458716,54.2356302 135.60112,56.5199227 C130.859116,69.5730226 116.532212,76.4259 104.475416,71.4004566 C103.668266,71.074129 103.315139,71.2046601 103.315139,71.7920495 C103.315139,73.4889526 100.187434,78.253334 98.2200072,79.558644 C97.1606233,80.211299 95.2436435,80.994485 94.0329189,81.1902815 C91.863705,81.5818745 91.863705,81.64714 91.0565552,85.3672734 C88.6351065,96.6582047 78.848419,103.576348 70.2724548,100.117276 Z M80.1095897,98.6814352 C82.2283576,97.8982498 83.4895283,96.7887362 85.910977,93.655992 C89.3918096,89.0874068 90.7034277,85.1062114 90.7034277,79.1017855 C90.7034277,77.1438205 90.9556618,75.5774486 91.2078959,75.5774486 C91.5105768,75.5774486 91.7123642,76.6216965 91.7123642,77.861741 C91.7123642,80.080768 91.7628109,80.1460335 93.6797913,80.1460335 C96.2525801,80.1460335 100.187434,76.7522275 101.549499,73.423687 L102.558436,70.8783326 L101.297265,69.8340846 C99.582072,68.3329781 96.7570491,64.4823136 96.7570491,63.5685966 C96.7570491,63.2422691 97.8668797,64.2865171 99.2289444,66.0486856 C102.255755,69.8993501 106.442843,71.6615186 112.647805,71.6615186 C123.998345,71.6615186 133.179671,64.0254551 135.9038,52.3429307 C136.509163,49.6670452 136.509163,49.4059832 135.702013,49.0796557 C133.482352,48.1006732 132.221181,47.3827527 131.060904,46.2079737 C129.04303,44.1847432 130.304201,43.9889468 132.574309,45.9469117 C137.366759,50.0586382 144.681551,48.1659387 147.405682,42.1615128 C149.928024,36.6139452 149.625342,31.3274398 146.548085,26.8241203 C143.773508,22.7123939 138.577483,20.8849599 134.894864,22.7123939 C133.734587,23.2345178 133.633692,23.4955798 134.087714,24.9966864 C134.693076,27.0851823 134.743523,27.9336338 134.138161,27.9336338 C133.885927,27.9336338 133.532799,27.1504478 133.381458,26.2367309 C132.826543,23.5608453 128.790795,18.4701364 125.864878,16.7732334 C122.283152,14.7500029 116.078191,14.6194719 113.152274,16.5121714 C111.1344,17.8174814 110.932612,18.4701364 111.588421,21.2765529 C112.24423,23.8219073 111.1344,22.8429249 110.125463,19.9712429 C108.965185,16.5121714 104.878991,11.1604004 101.70084,8.87610794 C97.2615173,5.67809847 94.6382812,4.89491247 89.0386814,5.22123997 C84.5489122,5.41703647 83.4895283,5.74336396 80.6140586,7.50553246 C78.7979716,8.61504594 76.8305452,10.1814179 76.1747362,10.9646039 C75.5189271,11.7477899 74.8631181,12.2046484 74.6613306,11.9435864 C74.4595432,11.6825244 75.0649055,10.6382765 76.0233954,9.65929394 L77.6881417,7.83185995 L75.6702679,6.06969146 C67.0943037,-1.2400445 55.995998,2.66453526e-15 48.4289712,9.20243542 L45.8057353,12.4657104 L43.6869678,11.2256659 C40.9123913,9.65929394 35.1110041,9.59402846 32.891343,11.095135 C31.0248097,12.400445 28.1493396,16.1205784 28.1493396,17.2953574 C28.1493396,17.7522159 28.4520206,18.1438089 28.8555954,18.1438089 C29.2591701,18.1438089 29.7636386,18.4701364 29.9149791,18.7964639 C30.1672134,19.3185879 29.4609575,19.3838534 27.7457648,19.0575259 C24.2649324,18.4701364 21.9948244,19.5796499 19.5733759,23.1692524 C18.4635453,24.8008898 17.5555021,25.8451378 17.5555021,25.3882793 C17.5555021,24.1482349 11.8045618,24.5398278 8.77775107,25.9756689 C1.21072428,29.6305369 -1.26117113,38.8329723 3.43038546,45.7511152 C6.6085367,50.3849657 9.23177266,51.6902757 15.3862877,51.7555411 C18.1608642,51.7555411 20.2291848,51.9513377 19.9265038,52.2123997 C19.5733759,52.4734617 18.9175669,52.7345237 18.4635453,52.7345237 C17.1519273,52.7345237 17.3537147,54.5619576 19.1193543,59.1305427 C20.8849939,63.7643931 23.6595703,67.158199 27.6448711,69.6382881 C30.1167665,71.1393946 31.0248097,71.335191 35.7163663,71.335191 C41.669094,71.335191 44.6454578,70.0951466 47.7227154,66.3097476 C48.832546,64.8739066 49.3370145,64.5475791 49.3370145,65.2002341 C49.3370145,65.7876236 48.8829928,66.7666061 48.3280776,67.419261 C47.3695875,68.5287746 47.3695875,68.6593056 48.2271838,70.4867395 C49.9928234,74.4026695 55.0879548,77.6659445 57.9634249,76.686962 C59.9308519,75.9690415 62.5540878,73.684749 62.806322,72.2489081 C63.1090031,70.8783326 63.9665995,70.552005 63.9665995,71.857315 C63.9665995,73.032094 61.5451509,76.2301035 60.1326393,76.8827585 C59.0228087,77.470148 58.921915,77.7964755 59.2245961,80.2765645 C60.6875546,94.5044436 69.9193273,102.597366 80.1095897,98.6814352 Z" id="node1"></path>
                    </g>
                    <g id="Group" transform="translate(75.559384, 52.090090) scale(-1, 1) rotate(-180.000000) translate(-75.559384, -52.090090) translate(1.059384, 2.590090)" fill="#FFFFFF">
                        <path d="M69.0617308,97.3108603 C63.2098968,94.7002403 59.1741492,87.9126279 58.266106,78.9712545 C57.9634249,76.4911655 58.0643186,76.164838 59.1741492,75.5774486 C60.5866609,74.9247935 63.0081094,71.7267841 63.0081094,70.552005 C63.0081094,69.246695 62.1505131,69.5730226 61.847832,70.9435981 C61.5955978,72.379439 58.9723618,74.6637315 57.0049349,75.381652 C54.1294647,76.3606345 49.0343334,73.0973595 47.2686938,69.1814296 C46.4110974,67.3539956 46.4110974,67.2234646 47.3695875,66.113951 C47.9245028,65.4612961 48.3785244,64.4823136 48.3785244,63.8949241 C48.3785244,63.2422691 47.8740559,63.5685966 46.7642254,65.0044376 C43.6869678,68.7898366 40.7106039,70.029881 34.7578762,70.029881 C30.0663196,70.029881 29.1582765,69.8340846 26.686381,68.3329781 C22.7010803,65.8528891 19.9265038,62.4590831 18.1608642,57.8252327 C16.3952246,53.2566477 16.1934372,51.4292137 17.5050552,51.4292137 C17.9590768,51.4292137 18.6148858,51.1681517 18.9680137,50.9070897 C19.2706948,50.6460277 17.2023741,50.4502312 14.4277977,50.4502312 C8.27328258,50.3849657 5.65004664,49.0796557 2.47189541,44.4458052 C-1.0089369,39.3550963 -0.756702679,33.3506703 3.07725755,28.5210233 C4.18708814,27.1504478 6.30585563,25.4535449 7.819261,24.6703589 C10.8460717,23.2345178 16.597012,22.8429249 16.597012,24.0829693 C16.597012,24.5398278 17.5050552,23.4955798 18.6148858,21.8639424 C21.0363344,18.2743399 23.3064424,17.1648264 26.7872747,17.7522159 C28.5024674,18.0785434 29.2087233,18.0132779 28.9564891,17.4911539 C28.8051485,17.1648264 28.30068,16.8384989 27.8971053,16.8384989 C27.4935305,16.8384989 27.1908495,16.4469059 27.1908495,15.9900474 C27.1908495,14.8152684 30.0663196,11.095135 31.9328529,9.78982498 C34.1525141,8.28871845 39.9539013,8.35398395 42.7284778,9.92035594 L44.8472452,11.1604004 L47.4704811,7.89712545 C55.0375079,-1.30530999 66.1358138,-2.54535449 74.7117773,4.76438147 L76.7296511,6.52654996 L75.0649055,8.35398395 C74.1064157,9.33296646 73.5010533,10.3772145 73.7028408,10.6382765 C73.9046282,10.8993385 74.5604372,10.4424799 75.2162463,9.65929394 C75.8720546,8.87610794 77.8394818,7.30973595 79.6555681,6.20022246 C82.5310384,4.43805397 83.5904223,4.11172648 88.0801915,3.91592997 C93.6797913,3.58960248 96.3030275,4.37278848 100.742349,7.57079795 C103.920501,9.85509046 108.006695,15.2068614 109.166973,18.6659329 C110.175909,21.5376149 111.28574,22.5165973 110.629931,19.9712429 C109.974122,17.1648264 110.175909,16.5121714 112.193783,15.2068614 C115.1197,13.3141619 121.324662,13.444693 124.906388,15.4679234 C127.832305,17.1648264 131.868053,22.2555353 132.422968,24.9314209 C132.574309,25.8451378 132.927437,26.6283238 133.179671,26.6283238 C133.785033,26.6283238 133.734587,25.7798724 133.129224,23.6913764 C132.675203,22.1902699 132.776096,21.9292079 133.936373,21.4070839 C137.618993,19.5796499 142.815018,21.4070839 145.589595,25.5188104 C148.666852,30.0221298 148.969533,35.3086352 146.447191,40.8562028 C143.723061,46.8606287 136.408269,48.7533282 131.615819,44.6416017 C129.345711,42.6836368 128.084539,42.8794332 130.102413,44.9026637 C131.26269,46.0774427 132.523862,46.7953632 134.743523,47.7743457 C135.550673,48.1006732 135.550673,48.3617352 134.945311,51.0376207 C132.221181,62.7201451 123.039855,70.3562086 111.689315,70.3562086 C105.484353,70.3562086 101.297265,68.5940401 98.2704539,64.7433756 C96.9083891,62.9812071 95.7985585,61.9369591 95.7985585,62.2632866 C95.7985585,63.1770036 98.6235821,67.0276681 100.338775,68.5287746 L101.599946,69.5730226 L100.591009,72.118377 C99.2289444,75.4469175 95.2940902,78.8407235 92.7213015,78.8407235 C90.804321,78.8407235 90.7538743,78.775458 90.7538743,76.556431 C90.7538743,75.3163866 90.5520869,74.2721386 90.2494061,74.2721386 C89.9971713,74.2721386 89.7449371,75.8385106 89.7449371,77.7964755 C89.7449371,83.8009015 88.433319,87.7820973 84.9524871,92.3506816 C82.5310384,95.4834257 81.2698677,96.5929394 79.1510998,97.3761256 C75.7711613,98.6814352 72.0380945,98.6814352 69.0617308,97.3108603 Z" id="node3"></path>
                    </g>
                </g>
                <g id="Cloud1" transform="translate(200.000000, 0.000000)">
                    <g id="Group" transform="translate(112.651006, 59.378992) scale(-1, 1) rotate(-180.000000) translate(-112.651006, -59.378992) translate(0.151006, 0.878992)" fill="#3E3E3E">
                        <path d="M105.175992,115.821947 C95.6625861,112.801818 88.6407862,104.345457 87.6592442,94.5300377 C87.2817281,90.7548765 87.0552184,90.4528636 85.243141,90.4528636 C81.3924766,90.4528636 77.3908056,88.7917926 74.144167,85.7716636 C72.3320896,84.1105927 70.6710186,82.1475088 70.4445089,81.3169733 C69.9914896,79.9579153 69.9159864,79.9579153 67.1978703,81.3169733 C59.7985542,84.9411281 49.9076317,85.3186443 41.9797931,82.223012 C34.6559803,79.3538895 27.4076707,71.6525605 25.4445868,64.5552574 C24.7650578,62.063651 24.6140514,61.9881477 20.0838579,61.5351284 C7.39931605,60.40258 -2.26509675,49.983135 0.528522575,40.4697286 C2.7181161,33.2969222 11.0234709,27.7851868 20.8388901,27.181161 C26.0486126,26.8791481 26.9546513,26.5771352 29.5972642,24.3120385 C32.3908835,21.8959353 36.3170512,20.2348643 39.3371802,20.2348643 C40.0167093,20.2348643 40.6207351,19.9328514 40.6207351,19.4798321 C40.6207351,18.120774 45.4529415,13.3640708 48.4730705,11.7029999 C52.5502446,9.58890958 60.8555994,9.43790313 65.2347864,11.400987 L68.3304186,12.8355483 L71.8790702,9.3623999 C78.2968443,3.17113545 89.4713216,-0.75503225 98.0786893,0.15100645 C103.288412,0.679529025 109.479676,2.86912255 113.934367,5.81374833 L117.256508,8.00334185 L122.541734,6.19126445 C132.583663,2.79361933 145.494715,4.15267738 153.875573,9.51340635 C155.763153,10.721458 159.009792,13.4395741 161.199385,15.6291676 L165.125553,19.5553353 L168.749708,17.9697676 C173.95943,15.7046708 179.848682,15.2516515 185.209411,16.761716 C190.268127,18.2717805 192.457721,19.5553353 196.308385,23.1039869 C198.875495,25.5200901 199.253011,25.6710965 201.518108,24.840561 C209.974469,21.8959353 219.714385,26.2751223 223.33854,34.6559803 C226.811688,42.8858318 223.036527,51.7197091 214.278153,55.6458768 C212.390572,56.4764123 209.596953,57.2314446 208.086888,57.2314446 C205.595282,57.2314446 205.217766,57.4579542 205.217766,58.9680187 C205.217766,59.8740574 204.236224,62.74318 202.952669,65.3857929 C195.855366,80.4864379 174.41245,88.4142765 156.367179,82.6005282 C155.159127,82.223012 154.630605,82.3740185 154.630605,83.0535475 C154.630605,85.0166314 149.949405,90.5283668 147.004779,92.0384313 C145.419211,92.7934635 142.550089,93.6995022 140.738011,93.9260119 C137.491373,94.3790313 137.491373,94.4545345 136.283321,98.7582183 C132.659166,111.820276 118.011541,119.823618 105.175992,115.821947 Z M119.899121,114.160876 C123.070257,113.254838 124.957837,111.971283 128.581992,108.347128 C133.791715,103.061902 135.754799,98.4562054 135.754799,91.5099087 C135.754799,89.244812 136.132315,87.4327346 136.509831,87.4327346 C136.96285,87.4327346 137.264863,88.6407862 137.264863,90.0753474 C137.264863,92.6424571 137.340366,92.7179603 140.209489,92.7179603 C144.060153,92.7179603 149.949405,88.7917926 151.987992,84.9411281 L153.498056,81.9965024 L151.610476,80.7884508 C149.043366,79.0518766 144.815186,74.5971863 144.815186,73.5401412 C144.815186,73.162625 146.476257,74.3706766 148.514844,76.4092637 C153.045037,80.863954 159.311805,82.9025411 168.598701,82.9025411 C185.586927,82.9025411 199.328514,74.0686637 203.405688,60.5535865 C204.311727,57.4579542 204.311727,57.1559413 203.103675,56.7784252 C199.781533,55.6458768 197.893953,54.8153414 196.157379,53.4562833 C193.13725,51.1156833 195.02483,50.8891737 198.422475,53.1542704 C205.595282,57.9109736 216.543249,55.7213801 220.620424,48.7750834 C224.395585,42.3573092 223.942565,36.241548 219.336869,31.0318255 C215.184191,26.2751223 207.407359,24.161032 201.895624,26.2751223 C200.15905,26.8791481 200.008043,27.181161 200.687572,28.9177352 C201.593611,31.3338384 201.669114,32.3153803 200.763075,32.3153803 C200.385559,32.3153803 199.857037,31.4093416 199.630527,30.3522965 C198.799991,27.2566642 192.759733,21.3674127 188.380546,19.4043288 C183.019817,17.0637289 173.732921,16.9127224 169.353734,19.1023159 C166.333605,20.6123804 166.031592,21.3674127 167.013134,24.6140514 C167.994676,27.5586771 166.333605,26.4261288 164.82354,23.1039869 C163.086966,19.1023159 156.971205,12.9110515 152.214502,10.2684386 C145.570218,6.56878058 141.64405,5.66274188 133.263192,6.040258 C126.543405,6.26676768 124.957837,6.6442838 120.654154,8.68287088 C117.936037,9.9664257 114.991412,11.7785031 114.00987,12.6845418 C113.028328,13.5905805 112.046786,14.1191031 111.744773,13.8170902 C111.44276,13.5150773 112.348799,12.3070257 113.78336,11.1744773 L116.274967,9.060387 L113.254838,7.02179993 C100.419289,-1.43456128 83.8085798,-1.10328413e-15 72.483096,10.6459547 L68.5569283,14.421116 L65.3857929,12.9865547 C61.2331155,11.1744773 52.5502446,11.0989741 49.2281027,12.8355483 C46.4344834,14.3456128 42.1307996,18.6492966 42.1307996,20.0083546 C42.1307996,20.5368772 42.5838189,20.9898966 43.1878447,20.9898966 C43.7918705,20.9898966 44.5469028,21.3674127 44.7734124,21.7449288 C45.1509286,22.3489546 44.0938834,22.4244578 41.5267738,22.0469417 C36.3170512,21.3674127 32.9194061,22.6509675 29.2952513,26.8036449 C27.6341804,28.6912255 26.2751223,29.8992771 26.2751223,29.3707545 C26.2751223,27.9361933 17.6677547,28.3892126 13.1375612,30.0502836 C1.8120774,34.2784642 -1.88758063,44.9244189 5.1342193,52.9277607 C9.89092248,58.2884897 13.8170902,59.7985542 23.0284836,59.8740574 C27.181161,59.8740574 30.2767932,60.1005671 29.8237739,60.40258 C29.2952513,60.7045929 28.3137094,61.0066058 27.6341804,61.0066058 C25.6710965,61.0066058 25.9731094,63.1206961 28.6157223,68.4059219 C31.2583352,73.7666508 35.4110125,77.6928185 41.3757673,80.5619411 C45.0754253,82.2985153 46.4344834,82.5250249 53.4562833,82.5250249 C62.3656639,82.5250249 66.8203541,81.0904637 71.4260509,76.7112766 C73.0871218,75.0502057 73.8421541,74.6726895 73.8421541,75.4277218 C73.8421541,76.1072508 73.162625,77.2397992 72.3320896,77.9948314 C70.8975283,79.2783863 70.8975283,79.4293927 72.1810831,81.543483 C74.823696,86.0736765 82.4495217,89.8488378 86.7532055,88.7162894 C89.6978313,87.8857539 93.623999,85.243141 94.0015151,83.5820701 C94.4545345,81.9965024 95.7380893,81.6189862 95.7380893,83.1290507 C95.7380893,84.4881088 92.1139345,88.1877668 89.9998442,88.9427991 C88.3387733,89.6223281 88.1877668,89.9998442 88.6407862,92.8689668 C90.8303797,109.32867 104.64747,118.69107 119.899121,114.160876 Z" id="node1"></path>
                    </g>
                    <g id="Group" transform="translate(112.585568, 59.368928) scale(-1, 1) rotate(-180.000000) translate(-112.585568, -59.368928) translate(1.585568, 2.368928)" fill="#FFFFFF">
                        <path d="M103.363915,112.575309 C94.6055409,109.55518 88.5652829,101.702844 87.2062249,91.3589023 C86.7532055,88.4897797 86.904212,88.1122636 88.5652829,87.4327346 C90.6793732,86.6777023 94.303528,82.9780443 94.303528,81.6189862 C94.303528,80.1089217 93.0199732,80.4864379 92.5669539,82.0720056 C92.1894377,83.7330765 88.26327,86.3756894 85.3186443,87.2062249 C81.0149604,88.3387733 73.3891347,84.563612 70.7465218,80.0334185 C69.462967,77.9193282 69.462967,77.7683218 70.8975283,76.4847669 C71.7280638,75.7297347 72.4075928,74.5971863 72.4075928,73.9176573 C72.4075928,73.162625 71.6525605,73.5401412 69.9914896,75.2012121 C65.3857929,79.5803992 60.9311026,81.0149604 52.021722,81.0149604 C44.9999221,81.0149604 43.6408641,80.7884508 39.941206,79.0518766 C33.9764513,76.182754 29.8237739,72.2565863 27.181161,66.8958574 C24.5385481,61.6106316 24.2365352,59.4965413 26.1996191,59.4965413 C26.8791481,59.4965413 27.86069,59.1945284 28.3892126,58.8925155 C28.842232,58.5905026 25.7465997,58.3639929 21.5939224,58.3639929 C12.3825289,58.2884897 8.4563612,56.7784252 3.69965803,51.4176962 C-1.5100645,45.5284447 -1.13254838,38.582148 4.60569673,32.9949093 C6.26676768,31.4093416 9.43790313,29.4462578 11.7029999,28.5402191 C16.2331934,26.8791481 24.840561,26.4261288 24.840561,27.86069 C24.840561,28.3892126 26.1996191,27.181161 27.86069,25.2935804 C31.4848448,21.140903 34.88249,19.8573482 40.0922125,20.5368772 C42.6593221,20.9143933 43.7163673,20.8388901 43.3388512,20.2348643 C43.1123415,19.8573482 42.3573092,19.4798321 41.7532834,19.4798321 C41.1492576,19.4798321 40.6962383,19.0268127 40.6962383,18.4982901 C40.6962383,17.1392321 44.9999221,12.8355483 47.7935414,11.3254838 C51.1156833,9.58890958 59.7985542,9.6644128 63.9512316,11.4764902 L67.122367,12.9110515 L71.0485347,9.13589023 C82.3740185,-1.5100645 98.984728,-2.94462578 111.820276,5.51173543 L114.840405,7.5503225 L112.348799,9.6644128 C110.914238,10.7969612 110.008199,12.0050128 110.310212,12.3070257 C110.612225,12.6090386 111.593767,12.080516 112.575309,11.1744773 C113.55685,10.2684386 116.501476,8.4563612 119.219592,7.17280638 C123.523276,5.1342193 125.108844,4.75670318 131.828631,4.5301935 C140.209489,4.15267738 144.135657,5.05871608 150.77994,8.7583741 C155.536644,11.400987 161.652405,17.5922514 163.388979,21.5939224 C164.899043,24.9160643 166.560114,26.0486126 165.578572,23.1039869 C164.597031,19.8573482 164.899043,19.1023159 167.919172,17.5922514 C172.298359,15.4026579 181.585256,15.5536644 186.945985,17.8942643 C191.325172,19.8573482 197.36543,25.7465997 198.195966,28.842232 C198.422475,29.8992771 198.950998,30.8053158 199.328514,30.8053158 C200.234553,30.8053158 200.15905,29.8237739 199.253011,27.4076707 C198.573482,25.6710965 198.724488,25.3690836 200.461062,24.7650578 C205.972798,22.6509675 213.74963,24.7650578 217.902307,29.521761 C222.508004,34.7314835 222.961023,40.8472447 219.185862,47.2650189 C215.108688,54.2113156 204.16072,56.4009091 196.987914,51.6442059 C193.590269,49.3791092 191.702688,49.6056188 194.722817,51.9462188 C196.459391,53.3052769 198.346972,54.1358123 201.669114,55.2683607 C202.877166,55.6458768 202.877166,55.9478897 201.971127,59.043522 C197.893953,72.5585992 184.152366,81.3924766 167.16414,81.3924766 C157.877244,81.3924766 151.610476,79.3538895 147.080282,74.8991992 C145.041695,72.8606121 143.380624,71.6525605 143.380624,72.0300767 C143.380624,73.0871218 147.608805,77.5418121 150.175915,79.2783863 L152.063495,80.4864379 L150.553431,83.4310636 C148.514844,87.2817281 142.625592,91.2078958 138.774928,91.2078958 C135.905805,91.2078958 135.830302,91.1323926 135.830302,88.5652829 C135.830302,87.1307217 135.528289,85.9226701 135.07527,85.9226701 C134.697753,85.9226701 134.320237,87.7347475 134.320237,89.9998442 C134.320237,96.9461409 132.357153,101.551838 127.147431,106.837063 C123.523276,110.461218 121.635696,111.744773 118.46456,112.650812 C113.405844,114.160876 107.818605,114.160876 103.363915,112.575309 Z" id="node3"></path>
                    </g>
                </g>
                <g id="Cloud1" transform="translate(441.000000, 132.000000)">
                    <g id="Group" transform="translate(112.651006, 59.378992) scale(-1, 1) rotate(-180.000000) translate(-112.651006, -59.378992) translate(0.151006, 0.878992)" fill="#3E3E3E">
                        <path d="M105.175992,115.821947 C95.6625861,112.801818 88.6407862,104.345457 87.6592442,94.5300377 C87.2817281,90.7548765 87.0552184,90.4528636 85.243141,90.4528636 C81.3924766,90.4528636 77.3908056,88.7917926 74.144167,85.7716636 C72.3320896,84.1105927 70.6710186,82.1475088 70.4445089,81.3169733 C69.9914896,79.9579153 69.9159864,79.9579153 67.1978703,81.3169733 C59.7985542,84.9411281 49.9076317,85.3186443 41.9797931,82.223012 C34.6559803,79.3538895 27.4076707,71.6525605 25.4445868,64.5552574 C24.7650578,62.063651 24.6140514,61.9881477 20.0838579,61.5351284 C7.39931605,60.40258 -2.26509675,49.983135 0.528522575,40.4697286 C2.7181161,33.2969222 11.0234709,27.7851868 20.8388901,27.181161 C26.0486126,26.8791481 26.9546513,26.5771352 29.5972642,24.3120385 C32.3908835,21.8959353 36.3170512,20.2348643 39.3371802,20.2348643 C40.0167093,20.2348643 40.6207351,19.9328514 40.6207351,19.4798321 C40.6207351,18.120774 45.4529415,13.3640708 48.4730705,11.7029999 C52.5502446,9.58890958 60.8555994,9.43790313 65.2347864,11.400987 L68.3304186,12.8355483 L71.8790702,9.3623999 C78.2968443,3.17113545 89.4713216,-0.75503225 98.0786893,0.15100645 C103.288412,0.679529025 109.479676,2.86912255 113.934367,5.81374833 L117.256508,8.00334185 L122.541734,6.19126445 C132.583663,2.79361933 145.494715,4.15267738 153.875573,9.51340635 C155.763153,10.721458 159.009792,13.4395741 161.199385,15.6291676 L165.125553,19.5553353 L168.749708,17.9697676 C173.95943,15.7046708 179.848682,15.2516515 185.209411,16.761716 C190.268127,18.2717805 192.457721,19.5553353 196.308385,23.1039869 C198.875495,25.5200901 199.253011,25.6710965 201.518108,24.840561 C209.974469,21.8959353 219.714385,26.2751223 223.33854,34.6559803 C226.811688,42.8858318 223.036527,51.7197091 214.278153,55.6458768 C212.390572,56.4764123 209.596953,57.2314446 208.086888,57.2314446 C205.595282,57.2314446 205.217766,57.4579542 205.217766,58.9680187 C205.217766,59.8740574 204.236224,62.74318 202.952669,65.3857929 C195.855366,80.4864379 174.41245,88.4142765 156.367179,82.6005282 C155.159127,82.223012 154.630605,82.3740185 154.630605,83.0535475 C154.630605,85.0166314 149.949405,90.5283668 147.004779,92.0384313 C145.419211,92.7934635 142.550089,93.6995022 140.738011,93.9260119 C137.491373,94.3790313 137.491373,94.4545345 136.283321,98.7582183 C132.659166,111.820276 118.011541,119.823618 105.175992,115.821947 Z M119.899121,114.160876 C123.070257,113.254838 124.957837,111.971283 128.581992,108.347128 C133.791715,103.061902 135.754799,98.4562054 135.754799,91.5099087 C135.754799,89.244812 136.132315,87.4327346 136.509831,87.4327346 C136.96285,87.4327346 137.264863,88.6407862 137.264863,90.0753474 C137.264863,92.6424571 137.340366,92.7179603 140.209489,92.7179603 C144.060153,92.7179603 149.949405,88.7917926 151.987992,84.9411281 L153.498056,81.9965024 L151.610476,80.7884508 C149.043366,79.0518766 144.815186,74.5971863 144.815186,73.5401412 C144.815186,73.162625 146.476257,74.3706766 148.514844,76.4092637 C153.045037,80.863954 159.311805,82.9025411 168.598701,82.9025411 C185.586927,82.9025411 199.328514,74.0686637 203.405688,60.5535865 C204.311727,57.4579542 204.311727,57.1559413 203.103675,56.7784252 C199.781533,55.6458768 197.893953,54.8153414 196.157379,53.4562833 C193.13725,51.1156833 195.02483,50.8891737 198.422475,53.1542704 C205.595282,57.9109736 216.543249,55.7213801 220.620424,48.7750834 C224.395585,42.3573092 223.942565,36.241548 219.336869,31.0318255 C215.184191,26.2751223 207.407359,24.161032 201.895624,26.2751223 C200.15905,26.8791481 200.008043,27.181161 200.687572,28.9177352 C201.593611,31.3338384 201.669114,32.3153803 200.763075,32.3153803 C200.385559,32.3153803 199.857037,31.4093416 199.630527,30.3522965 C198.799991,27.2566642 192.759733,21.3674127 188.380546,19.4043288 C183.019817,17.0637289 173.732921,16.9127224 169.353734,19.1023159 C166.333605,20.6123804 166.031592,21.3674127 167.013134,24.6140514 C167.994676,27.5586771 166.333605,26.4261288 164.82354,23.1039869 C163.086966,19.1023159 156.971205,12.9110515 152.214502,10.2684386 C145.570218,6.56878058 141.64405,5.66274188 133.263192,6.040258 C126.543405,6.26676768 124.957837,6.6442838 120.654154,8.68287088 C117.936037,9.9664257 114.991412,11.7785031 114.00987,12.6845418 C113.028328,13.5905805 112.046786,14.1191031 111.744773,13.8170902 C111.44276,13.5150773 112.348799,12.3070257 113.78336,11.1744773 L116.274967,9.060387 L113.254838,7.02179993 C100.419289,-1.43456128 83.8085798,-1.10328413e-15 72.483096,10.6459547 L68.5569283,14.421116 L65.3857929,12.9865547 C61.2331155,11.1744773 52.5502446,11.0989741 49.2281027,12.8355483 C46.4344834,14.3456128 42.1307996,18.6492966 42.1307996,20.0083546 C42.1307996,20.5368772 42.5838189,20.9898966 43.1878447,20.9898966 C43.7918705,20.9898966 44.5469028,21.3674127 44.7734124,21.7449288 C45.1509286,22.3489546 44.0938834,22.4244578 41.5267738,22.0469417 C36.3170512,21.3674127 32.9194061,22.6509675 29.2952513,26.8036449 C27.6341804,28.6912255 26.2751223,29.8992771 26.2751223,29.3707545 C26.2751223,27.9361933 17.6677547,28.3892126 13.1375612,30.0502836 C1.8120774,34.2784642 -1.88758063,44.9244189 5.1342193,52.9277607 C9.89092248,58.2884897 13.8170902,59.7985542 23.0284836,59.8740574 C27.181161,59.8740574 30.2767932,60.1005671 29.8237739,60.40258 C29.2952513,60.7045929 28.3137094,61.0066058 27.6341804,61.0066058 C25.6710965,61.0066058 25.9731094,63.1206961 28.6157223,68.4059219 C31.2583352,73.7666508 35.4110125,77.6928185 41.3757673,80.5619411 C45.0754253,82.2985153 46.4344834,82.5250249 53.4562833,82.5250249 C62.3656639,82.5250249 66.8203541,81.0904637 71.4260509,76.7112766 C73.0871218,75.0502057 73.8421541,74.6726895 73.8421541,75.4277218 C73.8421541,76.1072508 73.162625,77.2397992 72.3320896,77.9948314 C70.8975283,79.2783863 70.8975283,79.4293927 72.1810831,81.543483 C74.823696,86.0736765 82.4495217,89.8488378 86.7532055,88.7162894 C89.6978313,87.8857539 93.623999,85.243141 94.0015151,83.5820701 C94.4545345,81.9965024 95.7380893,81.6189862 95.7380893,83.1290507 C95.7380893,84.4881088 92.1139345,88.1877668 89.9998442,88.9427991 C88.3387733,89.6223281 88.1877668,89.9998442 88.6407862,92.8689668 C90.8303797,109.32867 104.64747,118.69107 119.899121,114.160876 Z" id="node1"></path>
                    </g>
                    <g id="Group" transform="translate(112.585568, 59.368928) scale(-1, 1) rotate(-180.000000) translate(-112.585568, -59.368928) translate(1.585568, 2.368928)" fill="#FFFFFF">
                        <path d="M103.363915,112.575309 C94.6055409,109.55518 88.5652829,101.702844 87.2062249,91.3589023 C86.7532055,88.4897797 86.904212,88.1122636 88.5652829,87.4327346 C90.6793732,86.6777023 94.303528,82.9780443 94.303528,81.6189862 C94.303528,80.1089217 93.0199732,80.4864379 92.5669539,82.0720056 C92.1894377,83.7330765 88.26327,86.3756894 85.3186443,87.2062249 C81.0149604,88.3387733 73.3891347,84.563612 70.7465218,80.0334185 C69.462967,77.9193282 69.462967,77.7683218 70.8975283,76.4847669 C71.7280638,75.7297347 72.4075928,74.5971863 72.4075928,73.9176573 C72.4075928,73.162625 71.6525605,73.5401412 69.9914896,75.2012121 C65.3857929,79.5803992 60.9311026,81.0149604 52.021722,81.0149604 C44.9999221,81.0149604 43.6408641,80.7884508 39.941206,79.0518766 C33.9764513,76.182754 29.8237739,72.2565863 27.181161,66.8958574 C24.5385481,61.6106316 24.2365352,59.4965413 26.1996191,59.4965413 C26.8791481,59.4965413 27.86069,59.1945284 28.3892126,58.8925155 C28.842232,58.5905026 25.7465997,58.3639929 21.5939224,58.3639929 C12.3825289,58.2884897 8.4563612,56.7784252 3.69965803,51.4176962 C-1.5100645,45.5284447 -1.13254838,38.582148 4.60569673,32.9949093 C6.26676768,31.4093416 9.43790313,29.4462578 11.7029999,28.5402191 C16.2331934,26.8791481 24.840561,26.4261288 24.840561,27.86069 C24.840561,28.3892126 26.1996191,27.181161 27.86069,25.2935804 C31.4848448,21.140903 34.88249,19.8573482 40.0922125,20.5368772 C42.6593221,20.9143933 43.7163673,20.8388901 43.3388512,20.2348643 C43.1123415,19.8573482 42.3573092,19.4798321 41.7532834,19.4798321 C41.1492576,19.4798321 40.6962383,19.0268127 40.6962383,18.4982901 C40.6962383,17.1392321 44.9999221,12.8355483 47.7935414,11.3254838 C51.1156833,9.58890958 59.7985542,9.6644128 63.9512316,11.4764902 L67.122367,12.9110515 L71.0485347,9.13589023 C82.3740185,-1.5100645 98.984728,-2.94462578 111.820276,5.51173543 L114.840405,7.5503225 L112.348799,9.6644128 C110.914238,10.7969612 110.008199,12.0050128 110.310212,12.3070257 C110.612225,12.6090386 111.593767,12.080516 112.575309,11.1744773 C113.55685,10.2684386 116.501476,8.4563612 119.219592,7.17280638 C123.523276,5.1342193 125.108844,4.75670318 131.828631,4.5301935 C140.209489,4.15267738 144.135657,5.05871608 150.77994,8.7583741 C155.536644,11.400987 161.652405,17.5922514 163.388979,21.5939224 C164.899043,24.9160643 166.560114,26.0486126 165.578572,23.1039869 C164.597031,19.8573482 164.899043,19.1023159 167.919172,17.5922514 C172.298359,15.4026579 181.585256,15.5536644 186.945985,17.8942643 C191.325172,19.8573482 197.36543,25.7465997 198.195966,28.842232 C198.422475,29.8992771 198.950998,30.8053158 199.328514,30.8053158 C200.234553,30.8053158 200.15905,29.8237739 199.253011,27.4076707 C198.573482,25.6710965 198.724488,25.3690836 200.461062,24.7650578 C205.972798,22.6509675 213.74963,24.7650578 217.902307,29.521761 C222.508004,34.7314835 222.961023,40.8472447 219.185862,47.2650189 C215.108688,54.2113156 204.16072,56.4009091 196.987914,51.6442059 C193.590269,49.3791092 191.702688,49.6056188 194.722817,51.9462188 C196.459391,53.3052769 198.346972,54.1358123 201.669114,55.2683607 C202.877166,55.6458768 202.877166,55.9478897 201.971127,59.043522 C197.893953,72.5585992 184.152366,81.3924766 167.16414,81.3924766 C157.877244,81.3924766 151.610476,79.3538895 147.080282,74.8991992 C145.041695,72.8606121 143.380624,71.6525605 143.380624,72.0300767 C143.380624,73.0871218 147.608805,77.5418121 150.175915,79.2783863 L152.063495,80.4864379 L150.553431,83.4310636 C148.514844,87.2817281 142.625592,91.2078958 138.774928,91.2078958 C135.905805,91.2078958 135.830302,91.1323926 135.830302,88.5652829 C135.830302,87.1307217 135.528289,85.9226701 135.07527,85.9226701 C134.697753,85.9226701 134.320237,87.7347475 134.320237,89.9998442 C134.320237,96.9461409 132.357153,101.551838 127.147431,106.837063 C123.523276,110.461218 121.635696,111.744773 118.46456,112.650812 C113.405844,114.160876 107.818605,114.160876 103.363915,112.575309 Z" id="node3"></path>
                    </g>
                </g>
                <g id="Cloud1" transform="translate(868.000000, 176.000000)">
                    <g id="Group" transform="translate(112.651006, 59.378992) scale(-1, 1) rotate(-180.000000) translate(-112.651006, -59.378992) translate(0.151006, 0.878992)" fill="#3E3E3E">
                        <path d="M105.175992,115.821947 C95.6625861,112.801818 88.6407862,104.345457 87.6592442,94.5300377 C87.2817281,90.7548765 87.0552184,90.4528636 85.243141,90.4528636 C81.3924766,90.4528636 77.3908056,88.7917926 74.144167,85.7716636 C72.3320896,84.1105927 70.6710186,82.1475088 70.4445089,81.3169733 C69.9914896,79.9579153 69.9159864,79.9579153 67.1978703,81.3169733 C59.7985542,84.9411281 49.9076317,85.3186443 41.9797931,82.223012 C34.6559803,79.3538895 27.4076707,71.6525605 25.4445868,64.5552574 C24.7650578,62.063651 24.6140514,61.9881477 20.0838579,61.5351284 C7.39931605,60.40258 -2.26509675,49.983135 0.528522575,40.4697286 C2.7181161,33.2969222 11.0234709,27.7851868 20.8388901,27.181161 C26.0486126,26.8791481 26.9546513,26.5771352 29.5972642,24.3120385 C32.3908835,21.8959353 36.3170512,20.2348643 39.3371802,20.2348643 C40.0167093,20.2348643 40.6207351,19.9328514 40.6207351,19.4798321 C40.6207351,18.120774 45.4529415,13.3640708 48.4730705,11.7029999 C52.5502446,9.58890958 60.8555994,9.43790313 65.2347864,11.400987 L68.3304186,12.8355483 L71.8790702,9.3623999 C78.2968443,3.17113545 89.4713216,-0.75503225 98.0786893,0.15100645 C103.288412,0.679529025 109.479676,2.86912255 113.934367,5.81374833 L117.256508,8.00334185 L122.541734,6.19126445 C132.583663,2.79361933 145.494715,4.15267738 153.875573,9.51340635 C155.763153,10.721458 159.009792,13.4395741 161.199385,15.6291676 L165.125553,19.5553353 L168.749708,17.9697676 C173.95943,15.7046708 179.848682,15.2516515 185.209411,16.761716 C190.268127,18.2717805 192.457721,19.5553353 196.308385,23.1039869 C198.875495,25.5200901 199.253011,25.6710965 201.518108,24.840561 C209.974469,21.8959353 219.714385,26.2751223 223.33854,34.6559803 C226.811688,42.8858318 223.036527,51.7197091 214.278153,55.6458768 C212.390572,56.4764123 209.596953,57.2314446 208.086888,57.2314446 C205.595282,57.2314446 205.217766,57.4579542 205.217766,58.9680187 C205.217766,59.8740574 204.236224,62.74318 202.952669,65.3857929 C195.855366,80.4864379 174.41245,88.4142765 156.367179,82.6005282 C155.159127,82.223012 154.630605,82.3740185 154.630605,83.0535475 C154.630605,85.0166314 149.949405,90.5283668 147.004779,92.0384313 C145.419211,92.7934635 142.550089,93.6995022 140.738011,93.9260119 C137.491373,94.3790313 137.491373,94.4545345 136.283321,98.7582183 C132.659166,111.820276 118.011541,119.823618 105.175992,115.821947 Z M119.899121,114.160876 C123.070257,113.254838 124.957837,111.971283 128.581992,108.347128 C133.791715,103.061902 135.754799,98.4562054 135.754799,91.5099087 C135.754799,89.244812 136.132315,87.4327346 136.509831,87.4327346 C136.96285,87.4327346 137.264863,88.6407862 137.264863,90.0753474 C137.264863,92.6424571 137.340366,92.7179603 140.209489,92.7179603 C144.060153,92.7179603 149.949405,88.7917926 151.987992,84.9411281 L153.498056,81.9965024 L151.610476,80.7884508 C149.043366,79.0518766 144.815186,74.5971863 144.815186,73.5401412 C144.815186,73.162625 146.476257,74.3706766 148.514844,76.4092637 C153.045037,80.863954 159.311805,82.9025411 168.598701,82.9025411 C185.586927,82.9025411 199.328514,74.0686637 203.405688,60.5535865 C204.311727,57.4579542 204.311727,57.1559413 203.103675,56.7784252 C199.781533,55.6458768 197.893953,54.8153414 196.157379,53.4562833 C193.13725,51.1156833 195.02483,50.8891737 198.422475,53.1542704 C205.595282,57.9109736 216.543249,55.7213801 220.620424,48.7750834 C224.395585,42.3573092 223.942565,36.241548 219.336869,31.0318255 C215.184191,26.2751223 207.407359,24.161032 201.895624,26.2751223 C200.15905,26.8791481 200.008043,27.181161 200.687572,28.9177352 C201.593611,31.3338384 201.669114,32.3153803 200.763075,32.3153803 C200.385559,32.3153803 199.857037,31.4093416 199.630527,30.3522965 C198.799991,27.2566642 192.759733,21.3674127 188.380546,19.4043288 C183.019817,17.0637289 173.732921,16.9127224 169.353734,19.1023159 C166.333605,20.6123804 166.031592,21.3674127 167.013134,24.6140514 C167.994676,27.5586771 166.333605,26.4261288 164.82354,23.1039869 C163.086966,19.1023159 156.971205,12.9110515 152.214502,10.2684386 C145.570218,6.56878058 141.64405,5.66274188 133.263192,6.040258 C126.543405,6.26676768 124.957837,6.6442838 120.654154,8.68287088 C117.936037,9.9664257 114.991412,11.7785031 114.00987,12.6845418 C113.028328,13.5905805 112.046786,14.1191031 111.744773,13.8170902 C111.44276,13.5150773 112.348799,12.3070257 113.78336,11.1744773 L116.274967,9.060387 L113.254838,7.02179993 C100.419289,-1.43456128 83.8085798,-1.10328413e-15 72.483096,10.6459547 L68.5569283,14.421116 L65.3857929,12.9865547 C61.2331155,11.1744773 52.5502446,11.0989741 49.2281027,12.8355483 C46.4344834,14.3456128 42.1307996,18.6492966 42.1307996,20.0083546 C42.1307996,20.5368772 42.5838189,20.9898966 43.1878447,20.9898966 C43.7918705,20.9898966 44.5469028,21.3674127 44.7734124,21.7449288 C45.1509286,22.3489546 44.0938834,22.4244578 41.5267738,22.0469417 C36.3170512,21.3674127 32.9194061,22.6509675 29.2952513,26.8036449 C27.6341804,28.6912255 26.2751223,29.8992771 26.2751223,29.3707545 C26.2751223,27.9361933 17.6677547,28.3892126 13.1375612,30.0502836 C1.8120774,34.2784642 -1.88758063,44.9244189 5.1342193,52.9277607 C9.89092248,58.2884897 13.8170902,59.7985542 23.0284836,59.8740574 C27.181161,59.8740574 30.2767932,60.1005671 29.8237739,60.40258 C29.2952513,60.7045929 28.3137094,61.0066058 27.6341804,61.0066058 C25.6710965,61.0066058 25.9731094,63.1206961 28.6157223,68.4059219 C31.2583352,73.7666508 35.4110125,77.6928185 41.3757673,80.5619411 C45.0754253,82.2985153 46.4344834,82.5250249 53.4562833,82.5250249 C62.3656639,82.5250249 66.8203541,81.0904637 71.4260509,76.7112766 C73.0871218,75.0502057 73.8421541,74.6726895 73.8421541,75.4277218 C73.8421541,76.1072508 73.162625,77.2397992 72.3320896,77.9948314 C70.8975283,79.2783863 70.8975283,79.4293927 72.1810831,81.543483 C74.823696,86.0736765 82.4495217,89.8488378 86.7532055,88.7162894 C89.6978313,87.8857539 93.623999,85.243141 94.0015151,83.5820701 C94.4545345,81.9965024 95.7380893,81.6189862 95.7380893,83.1290507 C95.7380893,84.4881088 92.1139345,88.1877668 89.9998442,88.9427991 C88.3387733,89.6223281 88.1877668,89.9998442 88.6407862,92.8689668 C90.8303797,109.32867 104.64747,118.69107 119.899121,114.160876 Z" id="node1"></path>
                    </g>
                    <g id="Group" transform="translate(112.585568, 59.368928) scale(-1, 1) rotate(-180.000000) translate(-112.585568, -59.368928) translate(1.585568, 2.368928)" fill="#FFFFFF">
                        <path d="M103.363915,112.575309 C94.6055409,109.55518 88.5652829,101.702844 87.2062249,91.3589023 C86.7532055,88.4897797 86.904212,88.1122636 88.5652829,87.4327346 C90.6793732,86.6777023 94.303528,82.9780443 94.303528,81.6189862 C94.303528,80.1089217 93.0199732,80.4864379 92.5669539,82.0720056 C92.1894377,83.7330765 88.26327,86.3756894 85.3186443,87.2062249 C81.0149604,88.3387733 73.3891347,84.563612 70.7465218,80.0334185 C69.462967,77.9193282 69.462967,77.7683218 70.8975283,76.4847669 C71.7280638,75.7297347 72.4075928,74.5971863 72.4075928,73.9176573 C72.4075928,73.162625 71.6525605,73.5401412 69.9914896,75.2012121 C65.3857929,79.5803992 60.9311026,81.0149604 52.021722,81.0149604 C44.9999221,81.0149604 43.6408641,80.7884508 39.941206,79.0518766 C33.9764513,76.182754 29.8237739,72.2565863 27.181161,66.8958574 C24.5385481,61.6106316 24.2365352,59.4965413 26.1996191,59.4965413 C26.8791481,59.4965413 27.86069,59.1945284 28.3892126,58.8925155 C28.842232,58.5905026 25.7465997,58.3639929 21.5939224,58.3639929 C12.3825289,58.2884897 8.4563612,56.7784252 3.69965803,51.4176962 C-1.5100645,45.5284447 -1.13254838,38.582148 4.60569673,32.9949093 C6.26676768,31.4093416 9.43790313,29.4462578 11.7029999,28.5402191 C16.2331934,26.8791481 24.840561,26.4261288 24.840561,27.86069 C24.840561,28.3892126 26.1996191,27.181161 27.86069,25.2935804 C31.4848448,21.140903 34.88249,19.8573482 40.0922125,20.5368772 C42.6593221,20.9143933 43.7163673,20.8388901 43.3388512,20.2348643 C43.1123415,19.8573482 42.3573092,19.4798321 41.7532834,19.4798321 C41.1492576,19.4798321 40.6962383,19.0268127 40.6962383,18.4982901 C40.6962383,17.1392321 44.9999221,12.8355483 47.7935414,11.3254838 C51.1156833,9.58890958 59.7985542,9.6644128 63.9512316,11.4764902 L67.122367,12.9110515 L71.0485347,9.13589023 C82.3740185,-1.5100645 98.984728,-2.94462578 111.820276,5.51173543 L114.840405,7.5503225 L112.348799,9.6644128 C110.914238,10.7969612 110.008199,12.0050128 110.310212,12.3070257 C110.612225,12.6090386 111.593767,12.080516 112.575309,11.1744773 C113.55685,10.2684386 116.501476,8.4563612 119.219592,7.17280638 C123.523276,5.1342193 125.108844,4.75670318 131.828631,4.5301935 C140.209489,4.15267738 144.135657,5.05871608 150.77994,8.7583741 C155.536644,11.400987 161.652405,17.5922514 163.388979,21.5939224 C164.899043,24.9160643 166.560114,26.0486126 165.578572,23.1039869 C164.597031,19.8573482 164.899043,19.1023159 167.919172,17.5922514 C172.298359,15.4026579 181.585256,15.5536644 186.945985,17.8942643 C191.325172,19.8573482 197.36543,25.7465997 198.195966,28.842232 C198.422475,29.8992771 198.950998,30.8053158 199.328514,30.8053158 C200.234553,30.8053158 200.15905,29.8237739 199.253011,27.4076707 C198.573482,25.6710965 198.724488,25.3690836 200.461062,24.7650578 C205.972798,22.6509675 213.74963,24.7650578 217.902307,29.521761 C222.508004,34.7314835 222.961023,40.8472447 219.185862,47.2650189 C215.108688,54.2113156 204.16072,56.4009091 196.987914,51.6442059 C193.590269,49.3791092 191.702688,49.6056188 194.722817,51.9462188 C196.459391,53.3052769 198.346972,54.1358123 201.669114,55.2683607 C202.877166,55.6458768 202.877166,55.9478897 201.971127,59.043522 C197.893953,72.5585992 184.152366,81.3924766 167.16414,81.3924766 C157.877244,81.3924766 151.610476,79.3538895 147.080282,74.8991992 C145.041695,72.8606121 143.380624,71.6525605 143.380624,72.0300767 C143.380624,73.0871218 147.608805,77.5418121 150.175915,79.2783863 L152.063495,80.4864379 L150.553431,83.4310636 C148.514844,87.2817281 142.625592,91.2078958 138.774928,91.2078958 C135.905805,91.2078958 135.830302,91.1323926 135.830302,88.5652829 C135.830302,87.1307217 135.528289,85.9226701 135.07527,85.9226701 C134.697753,85.9226701 134.320237,87.7347475 134.320237,89.9998442 C134.320237,96.9461409 132.357153,101.551838 127.147431,106.837063 C123.523276,110.461218 121.635696,111.744773 118.46456,112.650812 C113.405844,114.160876 107.818605,114.160876 103.363915,112.575309 Z" id="node3"></path>
                    </g>
                </g>
                <g id="Cloud1" transform="translate(643.000000, 15.000000)">
                    <g id="Group" transform="translate(112.651006, 59.378992) scale(-1, 1) rotate(-180.000000) translate(-112.651006, -59.378992) translate(0.151006, 0.878992)" fill="#3E3E3E">
                        <path d="M105.175992,115.821947 C95.6625861,112.801818 88.6407862,104.345457 87.6592442,94.5300377 C87.2817281,90.7548765 87.0552184,90.4528636 85.243141,90.4528636 C81.3924766,90.4528636 77.3908056,88.7917926 74.144167,85.7716636 C72.3320896,84.1105927 70.6710186,82.1475088 70.4445089,81.3169733 C69.9914896,79.9579153 69.9159864,79.9579153 67.1978703,81.3169733 C59.7985542,84.9411281 49.9076317,85.3186443 41.9797931,82.223012 C34.6559803,79.3538895 27.4076707,71.6525605 25.4445868,64.5552574 C24.7650578,62.063651 24.6140514,61.9881477 20.0838579,61.5351284 C7.39931605,60.40258 -2.26509675,49.983135 0.528522575,40.4697286 C2.7181161,33.2969222 11.0234709,27.7851868 20.8388901,27.181161 C26.0486126,26.8791481 26.9546513,26.5771352 29.5972642,24.3120385 C32.3908835,21.8959353 36.3170512,20.2348643 39.3371802,20.2348643 C40.0167093,20.2348643 40.6207351,19.9328514 40.6207351,19.4798321 C40.6207351,18.120774 45.4529415,13.3640708 48.4730705,11.7029999 C52.5502446,9.58890958 60.8555994,9.43790313 65.2347864,11.400987 L68.3304186,12.8355483 L71.8790702,9.3623999 C78.2968443,3.17113545 89.4713216,-0.75503225 98.0786893,0.15100645 C103.288412,0.679529025 109.479676,2.86912255 113.934367,5.81374833 L117.256508,8.00334185 L122.541734,6.19126445 C132.583663,2.79361933 145.494715,4.15267738 153.875573,9.51340635 C155.763153,10.721458 159.009792,13.4395741 161.199385,15.6291676 L165.125553,19.5553353 L168.749708,17.9697676 C173.95943,15.7046708 179.848682,15.2516515 185.209411,16.761716 C190.268127,18.2717805 192.457721,19.5553353 196.308385,23.1039869 C198.875495,25.5200901 199.253011,25.6710965 201.518108,24.840561 C209.974469,21.8959353 219.714385,26.2751223 223.33854,34.6559803 C226.811688,42.8858318 223.036527,51.7197091 214.278153,55.6458768 C212.390572,56.4764123 209.596953,57.2314446 208.086888,57.2314446 C205.595282,57.2314446 205.217766,57.4579542 205.217766,58.9680187 C205.217766,59.8740574 204.236224,62.74318 202.952669,65.3857929 C195.855366,80.4864379 174.41245,88.4142765 156.367179,82.6005282 C155.159127,82.223012 154.630605,82.3740185 154.630605,83.0535475 C154.630605,85.0166314 149.949405,90.5283668 147.004779,92.0384313 C145.419211,92.7934635 142.550089,93.6995022 140.738011,93.9260119 C137.491373,94.3790313 137.491373,94.4545345 136.283321,98.7582183 C132.659166,111.820276 118.011541,119.823618 105.175992,115.821947 Z M119.899121,114.160876 C123.070257,113.254838 124.957837,111.971283 128.581992,108.347128 C133.791715,103.061902 135.754799,98.4562054 135.754799,91.5099087 C135.754799,89.244812 136.132315,87.4327346 136.509831,87.4327346 C136.96285,87.4327346 137.264863,88.6407862 137.264863,90.0753474 C137.264863,92.6424571 137.340366,92.7179603 140.209489,92.7179603 C144.060153,92.7179603 149.949405,88.7917926 151.987992,84.9411281 L153.498056,81.9965024 L151.610476,80.7884508 C149.043366,79.0518766 144.815186,74.5971863 144.815186,73.5401412 C144.815186,73.162625 146.476257,74.3706766 148.514844,76.4092637 C153.045037,80.863954 159.311805,82.9025411 168.598701,82.9025411 C185.586927,82.9025411 199.328514,74.0686637 203.405688,60.5535865 C204.311727,57.4579542 204.311727,57.1559413 203.103675,56.7784252 C199.781533,55.6458768 197.893953,54.8153414 196.157379,53.4562833 C193.13725,51.1156833 195.02483,50.8891737 198.422475,53.1542704 C205.595282,57.9109736 216.543249,55.7213801 220.620424,48.7750834 C224.395585,42.3573092 223.942565,36.241548 219.336869,31.0318255 C215.184191,26.2751223 207.407359,24.161032 201.895624,26.2751223 C200.15905,26.8791481 200.008043,27.181161 200.687572,28.9177352 C201.593611,31.3338384 201.669114,32.3153803 200.763075,32.3153803 C200.385559,32.3153803 199.857037,31.4093416 199.630527,30.3522965 C198.799991,27.2566642 192.759733,21.3674127 188.380546,19.4043288 C183.019817,17.0637289 173.732921,16.9127224 169.353734,19.1023159 C166.333605,20.6123804 166.031592,21.3674127 167.013134,24.6140514 C167.994676,27.5586771 166.333605,26.4261288 164.82354,23.1039869 C163.086966,19.1023159 156.971205,12.9110515 152.214502,10.2684386 C145.570218,6.56878058 141.64405,5.66274188 133.263192,6.040258 C126.543405,6.26676768 124.957837,6.6442838 120.654154,8.68287088 C117.936037,9.9664257 114.991412,11.7785031 114.00987,12.6845418 C113.028328,13.5905805 112.046786,14.1191031 111.744773,13.8170902 C111.44276,13.5150773 112.348799,12.3070257 113.78336,11.1744773 L116.274967,9.060387 L113.254838,7.02179993 C100.419289,-1.43456128 83.8085798,-1.10328413e-15 72.483096,10.6459547 L68.5569283,14.421116 L65.3857929,12.9865547 C61.2331155,11.1744773 52.5502446,11.0989741 49.2281027,12.8355483 C46.4344834,14.3456128 42.1307996,18.6492966 42.1307996,20.0083546 C42.1307996,20.5368772 42.5838189,20.9898966 43.1878447,20.9898966 C43.7918705,20.9898966 44.5469028,21.3674127 44.7734124,21.7449288 C45.1509286,22.3489546 44.0938834,22.4244578 41.5267738,22.0469417 C36.3170512,21.3674127 32.9194061,22.6509675 29.2952513,26.8036449 C27.6341804,28.6912255 26.2751223,29.8992771 26.2751223,29.3707545 C26.2751223,27.9361933 17.6677547,28.3892126 13.1375612,30.0502836 C1.8120774,34.2784642 -1.88758063,44.9244189 5.1342193,52.9277607 C9.89092248,58.2884897 13.8170902,59.7985542 23.0284836,59.8740574 C27.181161,59.8740574 30.2767932,60.1005671 29.8237739,60.40258 C29.2952513,60.7045929 28.3137094,61.0066058 27.6341804,61.0066058 C25.6710965,61.0066058 25.9731094,63.1206961 28.6157223,68.4059219 C31.2583352,73.7666508 35.4110125,77.6928185 41.3757673,80.5619411 C45.0754253,82.2985153 46.4344834,82.5250249 53.4562833,82.5250249 C62.3656639,82.5250249 66.8203541,81.0904637 71.4260509,76.7112766 C73.0871218,75.0502057 73.8421541,74.6726895 73.8421541,75.4277218 C73.8421541,76.1072508 73.162625,77.2397992 72.3320896,77.9948314 C70.8975283,79.2783863 70.8975283,79.4293927 72.1810831,81.543483 C74.823696,86.0736765 82.4495217,89.8488378 86.7532055,88.7162894 C89.6978313,87.8857539 93.623999,85.243141 94.0015151,83.5820701 C94.4545345,81.9965024 95.7380893,81.6189862 95.7380893,83.1290507 C95.7380893,84.4881088 92.1139345,88.1877668 89.9998442,88.9427991 C88.3387733,89.6223281 88.1877668,89.9998442 88.6407862,92.8689668 C90.8303797,109.32867 104.64747,118.69107 119.899121,114.160876 Z" id="node1"></path>
                    </g>
                    <g id="Group" transform="translate(112.585568, 59.368928) scale(-1, 1) rotate(-180.000000) translate(-112.585568, -59.368928) translate(1.585568, 2.368928)" fill="#FFFFFF">
                        <path d="M103.363915,112.575309 C94.6055409,109.55518 88.5652829,101.702844 87.2062249,91.3589023 C86.7532055,88.4897797 86.904212,88.1122636 88.5652829,87.4327346 C90.6793732,86.6777023 94.303528,82.9780443 94.303528,81.6189862 C94.303528,80.1089217 93.0199732,80.4864379 92.5669539,82.0720056 C92.1894377,83.7330765 88.26327,86.3756894 85.3186443,87.2062249 C81.0149604,88.3387733 73.3891347,84.563612 70.7465218,80.0334185 C69.462967,77.9193282 69.462967,77.7683218 70.8975283,76.4847669 C71.7280638,75.7297347 72.4075928,74.5971863 72.4075928,73.9176573 C72.4075928,73.162625 71.6525605,73.5401412 69.9914896,75.2012121 C65.3857929,79.5803992 60.9311026,81.0149604 52.021722,81.0149604 C44.9999221,81.0149604 43.6408641,80.7884508 39.941206,79.0518766 C33.9764513,76.182754 29.8237739,72.2565863 27.181161,66.8958574 C24.5385481,61.6106316 24.2365352,59.4965413 26.1996191,59.4965413 C26.8791481,59.4965413 27.86069,59.1945284 28.3892126,58.8925155 C28.842232,58.5905026 25.7465997,58.3639929 21.5939224,58.3639929 C12.3825289,58.2884897 8.4563612,56.7784252 3.69965803,51.4176962 C-1.5100645,45.5284447 -1.13254838,38.582148 4.60569673,32.9949093 C6.26676768,31.4093416 9.43790313,29.4462578 11.7029999,28.5402191 C16.2331934,26.8791481 24.840561,26.4261288 24.840561,27.86069 C24.840561,28.3892126 26.1996191,27.181161 27.86069,25.2935804 C31.4848448,21.140903 34.88249,19.8573482 40.0922125,20.5368772 C42.6593221,20.9143933 43.7163673,20.8388901 43.3388512,20.2348643 C43.1123415,19.8573482 42.3573092,19.4798321 41.7532834,19.4798321 C41.1492576,19.4798321 40.6962383,19.0268127 40.6962383,18.4982901 C40.6962383,17.1392321 44.9999221,12.8355483 47.7935414,11.3254838 C51.1156833,9.58890958 59.7985542,9.6644128 63.9512316,11.4764902 L67.122367,12.9110515 L71.0485347,9.13589023 C82.3740185,-1.5100645 98.984728,-2.94462578 111.820276,5.51173543 L114.840405,7.5503225 L112.348799,9.6644128 C110.914238,10.7969612 110.008199,12.0050128 110.310212,12.3070257 C110.612225,12.6090386 111.593767,12.080516 112.575309,11.1744773 C113.55685,10.2684386 116.501476,8.4563612 119.219592,7.17280638 C123.523276,5.1342193 125.108844,4.75670318 131.828631,4.5301935 C140.209489,4.15267738 144.135657,5.05871608 150.77994,8.7583741 C155.536644,11.400987 161.652405,17.5922514 163.388979,21.5939224 C164.899043,24.9160643 166.560114,26.0486126 165.578572,23.1039869 C164.597031,19.8573482 164.899043,19.1023159 167.919172,17.5922514 C172.298359,15.4026579 181.585256,15.5536644 186.945985,17.8942643 C191.325172,19.8573482 197.36543,25.7465997 198.195966,28.842232 C198.422475,29.8992771 198.950998,30.8053158 199.328514,30.8053158 C200.234553,30.8053158 200.15905,29.8237739 199.253011,27.4076707 C198.573482,25.6710965 198.724488,25.3690836 200.461062,24.7650578 C205.972798,22.6509675 213.74963,24.7650578 217.902307,29.521761 C222.508004,34.7314835 222.961023,40.8472447 219.185862,47.2650189 C215.108688,54.2113156 204.16072,56.4009091 196.987914,51.6442059 C193.590269,49.3791092 191.702688,49.6056188 194.722817,51.9462188 C196.459391,53.3052769 198.346972,54.1358123 201.669114,55.2683607 C202.877166,55.6458768 202.877166,55.9478897 201.971127,59.043522 C197.893953,72.5585992 184.152366,81.3924766 167.16414,81.3924766 C157.877244,81.3924766 151.610476,79.3538895 147.080282,74.8991992 C145.041695,72.8606121 143.380624,71.6525605 143.380624,72.0300767 C143.380624,73.0871218 147.608805,77.5418121 150.175915,79.2783863 L152.063495,80.4864379 L150.553431,83.4310636 C148.514844,87.2817281 142.625592,91.2078958 138.774928,91.2078958 C135.905805,91.2078958 135.830302,91.1323926 135.830302,88.5652829 C135.830302,87.1307217 135.528289,85.9226701 135.07527,85.9226701 C134.697753,85.9226701 134.320237,87.7347475 134.320237,89.9998442 C134.320237,96.9461409 132.357153,101.551838 127.147431,106.837063 C123.523276,110.461218 121.635696,111.744773 118.46456,112.650812 C113.405844,114.160876 107.818605,114.160876 103.363915,112.575309 Z" id="node3"></path>
                    </g>
                </g>
            </g>
        </g>
    </g>
</svg>