<?xml version="1.0" encoding="UTF-8"?>
<svg width="349px" height="313px" viewBox="0 0 349 313" version="1.1" xmlns="http://www.w3.org/2000/svg" xmlns:xlink="http://www.w3.org/1999/xlink">
    <!-- Generator: Sketch 42 (36781) - http://www.bohemiancoding.com/sketch -->
    <title>Slice 2</title>
    <desc>Created with Sketch.</desc>
    <defs></defs>
    <g id="Page-1" stroke="none" stroke-width="1" fill="none" fill-rule="evenodd">
        <polygon id="Star-2" stroke="#979797" fill="#4A4A4A" points="174.5 50 166.564899 54.9442719 168.080369 44.472136 161.660737 37.0557281 170.53245 35.527864 174.5 26 178.46755 35.527864 187.339263 37.0557281 180.919631 44.472136 182.435101 54.9442719"></polygon>
        <polygon id="Star-2" stroke="#979797" fill="#4A4A4A" points="255.5 82 247.564899 86.9442719 249.080369 76.472136 242.660737 69.0557281 251.53245 67.527864 255.5 58 259.46755 67.527864 268.339263 69.0557281 261.919631 76.472136 263.435101 86.9442719"></polygon>
        <polygon id="Star-2" stroke="#979797" fill="#4A4A4A" points="46.5 222 38.5648991 226.944272 40.0803685 216.472136 33.660737 209.055728 42.5324495 207.527864 46.5 198 50.4675505 207.527864 59.339263 209.055728 52.9196315 216.472136 54.4351009 226.944272"></polygon>
        <polygon id="Star-2" stroke="#979797" fill="#4A4A4A" points="162.5 309 154.564899 313.944272 156.080369 303.472136 149.660737 296.055728 158.53245 294.527864 162.5 285 166.46755 294.527864 175.339263 296.055728 168.919631 303.472136 170.435101 313.944272"></polygon>
        <polygon id="Star-2" stroke="#979797" fill="#4A4A4A" points="120.5 175 112.564899 179.944272 114.080369 169.472136 107.660737 162.055728 116.53245 160.527864 120.5 151 124.46755 160.527864 133.339263 162.055728 126.919631 169.472136 128.435101 179.944272"></polygon>
        <polygon id="Star-2" stroke="#979797" fill="#4A4A4A" points="175.5 217 167.564899 221.944272 169.080369 211.472136 162.660737 204.055728 171.53245 202.527864 175.5 193 179.46755 202.527864 188.339263 204.055728 181.919631 211.472136 183.435101 221.944272"></polygon>
        <polygon id="Star-2" stroke="#979797" fill="#4A4A4A" points="292.5 254 284.564899 258.944272 286.080369 248.472136 279.660737 241.055728 288.53245 239.527864 292.5 230 296.46755 239.527864 305.339263 241.055728 298.919631 248.472136 300.435101 258.944272"></polygon>
        <polygon id="Star-2" stroke="#979797" fill="#4A4A4A" points="134 24 126.064899 28.9442719 127.580369 18.472136 121.160737 11.0557281 130.03245 9.52786405 134 0 137.96755 9.52786405 146.839263 11.0557281 140.419631 18.472136 141.935101 28.9442719"></polygon>
        <polyline id="Line" stroke="#4A4A4A" stroke-width="2" stroke-linecap="square" points="147.5 25.5 123.568001 163.361798 112 230"></polyline>
        <polyline id="Line" stroke="#4A4A4A" stroke-width="2" stroke-linecap="square" transform="translate(252.837051, 128.250000) scale(-1, 1) translate(-252.837051, -128.250000) " points="266.337051 26 248.135249 163.861798 239.337051 230.5"></polyline>
        <path d="M279.5,19.5 L316,183" id="Line" stroke="#4A4A4A" stroke-width="2" stroke-linecap="square"></path>
        <path d="M97.5,16.5 L22,159" id="Line" stroke="#4A4A4A" stroke-width="2" stroke-linecap="square"></path>
    </g>
</svg>