<?xml version="1.0" encoding="UTF-8"?>
<svg width="1233px" height="370px" viewBox="0 0 1233 370" version="1.1" xmlns="http://www.w3.org/2000/svg" xmlns:xlink="http://www.w3.org/1999/xlink">
    <!-- Generator: Sketch 42 (36781) - http://www.bohemiancoding.com/sketch -->
    <title>Slice</title>
    <desc>Created with Sketch.</desc>
    <defs></defs>
    <g id="Page-1" stroke="none" stroke-width="1" fill="none" fill-rule="evenodd">
        <g id="Cloud1" transform="translate(0.000000, 119.000000)" fill-rule="nonzero">
            <g id="Group" transform="translate(112.462054, 58.439496) scale(-1, 1) rotate(-180.000000) translate(-112.462054, -58.439496) translate(0.151006, -0.000000)" fill="#3E3E3E">
                <path d="M105.175992,115.821947 C95.6625861,112.801818 88.6407862,104.345457 87.6592442,94.5300377 C87.2817281,90.7548765 87.0552184,90.4528636 85.243141,90.4528636 C81.3924766,90.4528636 77.3908056,88.7917926 74.144167,85.7716636 C72.3320896,84.1105927 70.6710186,82.1475088 70.4445089,81.3169733 C69.9914896,79.9579153 69.9159864,79.9579153 67.1978703,81.3169733 C59.7985542,84.9411281 49.9076317,85.3186443 41.9797931,82.223012 C34.6559803,79.3538895 27.4076707,71.6525605 25.4445868,64.5552574 C24.7650578,62.063651 24.6140514,61.9881477 20.0838579,61.5351284 C7.39931605,60.40258 -2.26509675,49.983135 0.528522575,40.4697286 C2.7181161,33.2969222 11.0234709,27.7851868 20.8388901,27.181161 C26.0486126,26.8791481 26.9546513,26.5771352 29.5972642,24.3120385 C32.3908835,21.8959353 36.3170512,20.2348643 39.3371802,20.2348643 C40.0167093,20.2348643 40.6207351,19.9328514 40.6207351,19.4798321 C40.6207351,18.120774 45.4529415,13.3640708 48.4730705,11.7029999 C52.5502446,9.58890958 60.8555994,9.43790313 65.2347864,11.400987 L68.3304186,12.8355483 L71.8790702,9.3623999 C78.2968443,3.17113545 89.4713216,-0.75503225 98.0786893,0.15100645 C103.288412,0.679529025 109.479676,2.86912255 113.934367,5.81374833 L117.256508,8.00334185 L122.541734,6.19126445 C132.583663,2.79361933 145.494715,4.15267738 153.875573,9.51340635 C155.763153,10.721458 159.009792,13.4395741 161.199385,15.6291676 L165.125553,19.5553353 L168.749708,17.9697676 C173.95943,15.7046708 179.848682,15.2516515 185.209411,16.761716 C190.268127,18.2717805 192.457721,19.5553353 196.308385,23.1039869 C198.875495,25.5200901 199.253011,25.6710965 201.518108,24.840561 C209.974469,21.8959353 219.714385,26.2751223 223.33854,34.6559803 C226.811688,42.8858318 223.036527,51.7197091 214.278153,55.6458768 C212.390572,56.4764123 209.596953,57.2314446 208.086888,57.2314446 C205.595282,57.2314446 205.217766,57.4579542 205.217766,58.9680187 C205.217766,59.8740574 204.236224,62.74318 202.952669,65.3857929 C195.855366,80.4864379 174.41245,88.4142765 156.367179,82.6005282 C155.159127,82.223012 154.630605,82.3740185 154.630605,83.0535475 C154.630605,85.0166314 149.949405,90.5283668 147.004779,92.0384313 C145.419211,92.7934635 142.550089,93.6995022 140.738011,93.9260119 C137.491373,94.3790313 137.491373,94.4545345 136.283321,98.7582183 C132.659166,111.820276 118.011541,119.823618 105.175992,115.821947 Z M119.899121,114.160876 C123.070257,113.254838 124.957837,111.971283 128.581992,108.347128 C133.791715,103.061902 135.754799,98.4562054 135.754799,91.5099087 C135.754799,89.244812 136.132315,87.4327346 136.509831,87.4327346 C136.96285,87.4327346 137.264863,88.6407862 137.264863,90.0753474 C137.264863,92.6424571 137.340366,92.7179603 140.209489,92.7179603 C144.060153,92.7179603 149.949405,88.7917926 151.987992,84.9411281 L153.498056,81.9965024 L151.610476,80.7884508 C149.043366,79.0518766 144.815186,74.5971863 144.815186,73.5401412 C144.815186,73.162625 146.476257,74.3706766 148.514844,76.4092637 C153.045037,80.863954 159.311805,82.9025411 168.598701,82.9025411 C185.586927,82.9025411 199.328514,74.0686637 203.405688,60.5535865 C204.311727,57.4579542 204.311727,57.1559413 203.103675,56.7784252 C199.781533,55.6458768 197.893953,54.8153414 196.157379,53.4562833 C193.13725,51.1156833 195.02483,50.8891737 198.422475,53.1542704 C205.595282,57.9109736 216.543249,55.7213801 220.620424,48.7750834 C224.395585,42.3573092 223.942565,36.241548 219.336869,31.0318255 C215.184191,26.2751223 207.407359,24.161032 201.895624,26.2751223 C200.15905,26.8791481 200.008043,27.181161 200.687572,28.9177352 C201.593611,31.3338384 201.669114,32.3153803 200.763075,32.3153803 C200.385559,32.3153803 199.857037,31.4093416 199.630527,30.3522965 C198.799991,27.2566642 192.759733,21.3674127 188.380546,19.4043288 C183.019817,17.0637289 173.732921,16.9127224 169.353734,19.1023159 C166.333605,20.6123804 166.031592,21.3674127 167.013134,24.6140514 C167.994676,27.5586771 166.333605,26.4261288 164.82354,23.1039869 C163.086966,19.1023159 156.971205,12.9110515 152.214502,10.2684386 C145.570218,6.56878058 141.64405,5.66274188 133.263192,6.040258 C126.543405,6.26676768 124.957837,6.6442838 120.654154,8.68287088 C117.936037,9.9664257 114.991412,11.7785031 114.00987,12.6845418 C113.028328,13.5905805 112.046786,14.1191031 111.744773,13.8170902 C111.44276,13.5150773 112.348799,12.3070257 113.78336,11.1744773 L116.274967,9.060387 L113.254838,7.02179993 C100.419289,-1.43456128 83.8085798,-2.40779618e-15 72.483096,10.6459547 L68.5569283,14.421116 L65.3857929,12.9865547 C61.2331155,11.1744773 52.5502446,11.0989741 49.2281027,12.8355483 C46.4344834,14.3456128 42.1307996,18.6492966 42.1307996,20.0083546 C42.1307996,20.5368772 42.5838189,20.9898966 43.1878447,20.9898966 C43.7918705,20.9898966 44.5469028,21.3674127 44.7734124,21.7449288 C45.1509286,22.3489546 44.0938834,22.4244578 41.5267738,22.0469417 C36.3170512,21.3674127 32.9194061,22.6509675 29.2952513,26.8036449 C27.6341804,28.6912255 26.2751223,29.8992771 26.2751223,29.3707545 C26.2751223,27.9361933 17.6677547,28.3892126 13.1375612,30.0502836 C1.8120774,34.2784642 -1.88758063,44.9244189 5.1342193,52.9277607 C9.89092248,58.2884897 13.8170902,59.7985542 23.0284836,59.8740574 C27.181161,59.8740574 30.2767932,60.1005671 29.8237739,60.40258 C29.2952513,60.7045929 28.3137094,61.0066058 27.6341804,61.0066058 C25.6710965,61.0066058 25.9731094,63.1206961 28.6157223,68.4059219 C31.2583352,73.7666508 35.4110125,77.6928185 41.3757673,80.5619411 C45.0754253,82.2985153 46.4344834,82.5250249 53.4562833,82.5250249 C62.3656639,82.5250249 66.8203541,81.0904637 71.4260509,76.7112766 C73.0871218,75.0502057 73.8421541,74.6726895 73.8421541,75.4277218 C73.8421541,76.1072508 73.162625,77.2397992 72.3320896,77.9948314 C70.8975283,79.2783863 70.8975283,79.4293927 72.1810831,81.543483 C74.823696,86.0736765 82.4495217,89.8488378 86.7532055,88.7162894 C89.6978313,87.8857539 93.623999,85.243141 94.0015151,83.5820701 C94.4545345,81.9965024 95.7380893,81.6189862 95.7380893,83.1290507 C95.7380893,84.4881088 92.1139345,88.1877668 89.9998442,88.9427991 C88.3387733,89.6223281 88.1877668,89.9998442 88.6407862,92.8689668 C90.8303797,109.32867 104.64747,118.69107 119.899121,114.160876 Z" id="node1"></path>
            </g>
            <g id="Group" transform="translate(112.462054, 58.477248) scale(-1, 1) rotate(-180.000000) translate(-112.462054, -58.477248) translate(1.585568, 1.585568)" fill="#FFFFFF">
                <path d="M103.363915,112.575309 C94.6055409,109.55518 88.5652829,101.702844 87.2062249,91.3589023 C86.7532055,88.4897797 86.904212,88.1122636 88.5652829,87.4327346 C90.6793732,86.6777023 94.303528,82.9780443 94.303528,81.6189862 C94.303528,80.1089217 93.0199732,80.4864379 92.5669539,82.0720056 C92.1894377,83.7330765 88.26327,86.3756894 85.3186443,87.2062249 C81.0149604,88.3387733 73.3891347,84.563612 70.7465218,80.0334185 C69.462967,77.9193282 69.462967,77.7683218 70.8975283,76.4847669 C71.7280638,75.7297347 72.4075928,74.5971863 72.4075928,73.9176573 C72.4075928,73.162625 71.6525605,73.5401412 69.9914896,75.2012121 C65.3857929,79.5803992 60.9311026,81.0149604 52.021722,81.0149604 C44.9999221,81.0149604 43.6408641,80.7884508 39.941206,79.0518766 C33.9764513,76.182754 29.8237739,72.2565863 27.181161,66.8958574 C24.5385481,61.6106316 24.2365352,59.4965413 26.1996191,59.4965413 C26.8791481,59.4965413 27.86069,59.1945284 28.3892126,58.8925155 C28.842232,58.5905026 25.7465997,58.3639929 21.5939224,58.3639929 C12.3825289,58.2884897 8.4563612,56.7784252 3.69965803,51.4176962 C-1.5100645,45.5284447 -1.13254838,38.582148 4.60569673,32.9949093 C6.26676768,31.4093416 9.43790313,29.4462578 11.7029999,28.5402191 C16.2331934,26.8791481 24.840561,26.4261288 24.840561,27.86069 C24.840561,28.3892126 26.1996191,27.181161 27.86069,25.2935804 C31.4848448,21.140903 34.88249,19.8573482 40.0922125,20.5368772 C42.6593221,20.9143933 43.7163673,20.8388901 43.3388512,20.2348643 C43.1123415,19.8573482 42.3573092,19.4798321 41.7532834,19.4798321 C41.1492576,19.4798321 40.6962383,19.0268127 40.6962383,18.4982901 C40.6962383,17.1392321 44.9999221,12.8355483 47.7935414,11.3254838 C51.1156833,9.58890958 59.7985542,9.6644128 63.9512316,11.4764902 L67.122367,12.9110515 L71.0485347,9.13589023 C82.3740185,-1.5100645 98.984728,-2.94462578 111.820276,5.51173543 L114.840405,7.5503225 L112.348799,9.6644128 C110.914238,10.7969612 110.008199,12.0050128 110.310212,12.3070257 C110.612225,12.6090386 111.593767,12.080516 112.575309,11.1744773 C113.55685,10.2684386 116.501476,8.4563612 119.219592,7.17280638 C123.523276,5.1342193 125.108844,4.75670318 131.828631,4.5301935 C140.209489,4.15267738 144.135657,5.05871608 150.77994,8.7583741 C155.536644,11.400987 161.652405,17.5922514 163.388979,21.5939224 C164.899043,24.9160643 166.560114,26.0486126 165.578572,23.1039869 C164.597031,19.8573482 164.899043,19.1023159 167.919172,17.5922514 C172.298359,15.4026579 181.585256,15.5536644 186.945985,17.8942643 C191.325172,19.8573482 197.36543,25.7465997 198.195966,28.842232 C198.422475,29.8992771 198.950998,30.8053158 199.328514,30.8053158 C200.234553,30.8053158 200.15905,29.8237739 199.253011,27.4076707 C198.573482,25.6710965 198.724488,25.3690836 200.461062,24.7650578 C205.972798,22.6509675 213.74963,24.7650578 217.902307,29.521761 C222.508004,34.7314835 222.961023,40.8472447 219.185862,47.2650189 C215.108688,54.2113156 204.16072,56.4009091 196.987914,51.6442059 C193.590269,49.3791092 191.702688,49.6056188 194.722817,51.9462188 C196.459391,53.3052769 198.346972,54.1358123 201.669114,55.2683607 C202.877166,55.6458768 202.877166,55.9478897 201.971127,59.043522 C197.893953,72.5585992 184.152366,81.3924766 167.16414,81.3924766 C157.877244,81.3924766 151.610476,79.3538895 147.080282,74.8991992 C145.041695,72.8606121 143.380624,71.6525605 143.380624,72.0300767 C143.380624,73.0871218 147.608805,77.5418121 150.175915,79.2783863 L152.063495,80.4864379 L150.553431,83.4310636 C148.514844,87.2817281 142.625592,91.2078958 138.774928,91.2078958 C135.905805,91.2078958 135.830302,91.1323926 135.830302,88.5652829 C135.830302,87.1307217 135.528289,85.9226701 135.07527,85.9226701 C134.697753,85.9226701 134.320237,87.7347475 134.320237,89.9998442 C134.320237,96.9461409 132.357153,101.551838 127.147431,106.837063 C123.523276,110.461218 121.635696,111.744773 118.46456,112.650812 C113.405844,114.160876 107.818605,114.160876 103.363915,112.575309 Z" id="node3"></path>
            </g>
        </g>
        <g id="Cloud1" transform="translate(303.000000, 60.000000)" fill-rule="nonzero">
            <g id="Group" transform="translate(112.462054, 58.439496) scale(-1, 1) rotate(-180.000000) translate(-112.462054, -58.439496) translate(0.151006, -0.000000)" fill="#3E3E3E">
                <path d="M105.175992,115.821947 C95.6625861,112.801818 88.6407862,104.345457 87.6592442,94.5300377 C87.2817281,90.7548765 87.0552184,90.4528636 85.243141,90.4528636 C81.3924766,90.4528636 77.3908056,88.7917926 74.144167,85.7716636 C72.3320896,84.1105927 70.6710186,82.1475088 70.4445089,81.3169733 C69.9914896,79.9579153 69.9159864,79.9579153 67.1978703,81.3169733 C59.7985542,84.9411281 49.9076317,85.3186443 41.9797931,82.223012 C34.6559803,79.3538895 27.4076707,71.6525605 25.4445868,64.5552574 C24.7650578,62.063651 24.6140514,61.9881477 20.0838579,61.5351284 C7.39931605,60.40258 -2.26509675,49.983135 0.528522575,40.4697286 C2.7181161,33.2969222 11.0234709,27.7851868 20.8388901,27.181161 C26.0486126,26.8791481 26.9546513,26.5771352 29.5972642,24.3120385 C32.3908835,21.8959353 36.3170512,20.2348643 39.3371802,20.2348643 C40.0167093,20.2348643 40.6207351,19.9328514 40.6207351,19.4798321 C40.6207351,18.120774 45.4529415,13.3640708 48.4730705,11.7029999 C52.5502446,9.58890958 60.8555994,9.43790313 65.2347864,11.400987 L68.3304186,12.8355483 L71.8790702,9.3623999 C78.2968443,3.17113545 89.4713216,-0.75503225 98.0786893,0.15100645 C103.288412,0.679529025 109.479676,2.86912255 113.934367,5.81374833 L117.256508,8.00334185 L122.541734,6.19126445 C132.583663,2.79361933 145.494715,4.15267738 153.875573,9.51340635 C155.763153,10.721458 159.009792,13.4395741 161.199385,15.6291676 L165.125553,19.5553353 L168.749708,17.9697676 C173.95943,15.7046708 179.848682,15.2516515 185.209411,16.761716 C190.268127,18.2717805 192.457721,19.5553353 196.308385,23.1039869 C198.875495,25.5200901 199.253011,25.6710965 201.518108,24.840561 C209.974469,21.8959353 219.714385,26.2751223 223.33854,34.6559803 C226.811688,42.8858318 223.036527,51.7197091 214.278153,55.6458768 C212.390572,56.4764123 209.596953,57.2314446 208.086888,57.2314446 C205.595282,57.2314446 205.217766,57.4579542 205.217766,58.9680187 C205.217766,59.8740574 204.236224,62.74318 202.952669,65.3857929 C195.855366,80.4864379 174.41245,88.4142765 156.367179,82.6005282 C155.159127,82.223012 154.630605,82.3740185 154.630605,83.0535475 C154.630605,85.0166314 149.949405,90.5283668 147.004779,92.0384313 C145.419211,92.7934635 142.550089,93.6995022 140.738011,93.9260119 C137.491373,94.3790313 137.491373,94.4545345 136.283321,98.7582183 C132.659166,111.820276 118.011541,119.823618 105.175992,115.821947 Z M119.899121,114.160876 C123.070257,113.254838 124.957837,111.971283 128.581992,108.347128 C133.791715,103.061902 135.754799,98.4562054 135.754799,91.5099087 C135.754799,89.244812 136.132315,87.4327346 136.509831,87.4327346 C136.96285,87.4327346 137.264863,88.6407862 137.264863,90.0753474 C137.264863,92.6424571 137.340366,92.7179603 140.209489,92.7179603 C144.060153,92.7179603 149.949405,88.7917926 151.987992,84.9411281 L153.498056,81.9965024 L151.610476,80.7884508 C149.043366,79.0518766 144.815186,74.5971863 144.815186,73.5401412 C144.815186,73.162625 146.476257,74.3706766 148.514844,76.4092637 C153.045037,80.863954 159.311805,82.9025411 168.598701,82.9025411 C185.586927,82.9025411 199.328514,74.0686637 203.405688,60.5535865 C204.311727,57.4579542 204.311727,57.1559413 203.103675,56.7784252 C199.781533,55.6458768 197.893953,54.8153414 196.157379,53.4562833 C193.13725,51.1156833 195.02483,50.8891737 198.422475,53.1542704 C205.595282,57.9109736 216.543249,55.7213801 220.620424,48.7750834 C224.395585,42.3573092 223.942565,36.241548 219.336869,31.0318255 C215.184191,26.2751223 207.407359,24.161032 201.895624,26.2751223 C200.15905,26.8791481 200.008043,27.181161 200.687572,28.9177352 C201.593611,31.3338384 201.669114,32.3153803 200.763075,32.3153803 C200.385559,32.3153803 199.857037,31.4093416 199.630527,30.3522965 C198.799991,27.2566642 192.759733,21.3674127 188.380546,19.4043288 C183.019817,17.0637289 173.732921,16.9127224 169.353734,19.1023159 C166.333605,20.6123804 166.031592,21.3674127 167.013134,24.6140514 C167.994676,27.5586771 166.333605,26.4261288 164.82354,23.1039869 C163.086966,19.1023159 156.971205,12.9110515 152.214502,10.2684386 C145.570218,6.56878058 141.64405,5.66274188 133.263192,6.040258 C126.543405,6.26676768 124.957837,6.6442838 120.654154,8.68287088 C117.936037,9.9664257 114.991412,11.7785031 114.00987,12.6845418 C113.028328,13.5905805 112.046786,14.1191031 111.744773,13.8170902 C111.44276,13.5150773 112.348799,12.3070257 113.78336,11.1744773 L116.274967,9.060387 L113.254838,7.02179993 C100.419289,-1.43456128 83.8085798,-2.40779618e-15 72.483096,10.6459547 L68.5569283,14.421116 L65.3857929,12.9865547 C61.2331155,11.1744773 52.5502446,11.0989741 49.2281027,12.8355483 C46.4344834,14.3456128 42.1307996,18.6492966 42.1307996,20.0083546 C42.1307996,20.5368772 42.5838189,20.9898966 43.1878447,20.9898966 C43.7918705,20.9898966 44.5469028,21.3674127 44.7734124,21.7449288 C45.1509286,22.3489546 44.0938834,22.4244578 41.5267738,22.0469417 C36.3170512,21.3674127 32.9194061,22.6509675 29.2952513,26.8036449 C27.6341804,28.6912255 26.2751223,29.8992771 26.2751223,29.3707545 C26.2751223,27.9361933 17.6677547,28.3892126 13.1375612,30.0502836 C1.8120774,34.2784642 -1.88758063,44.9244189 5.1342193,52.9277607 C9.89092248,58.2884897 13.8170902,59.7985542 23.0284836,59.8740574 C27.181161,59.8740574 30.2767932,60.1005671 29.8237739,60.40258 C29.2952513,60.7045929 28.3137094,61.0066058 27.6341804,61.0066058 C25.6710965,61.0066058 25.9731094,63.1206961 28.6157223,68.4059219 C31.2583352,73.7666508 35.4110125,77.6928185 41.3757673,80.5619411 C45.0754253,82.2985153 46.4344834,82.5250249 53.4562833,82.5250249 C62.3656639,82.5250249 66.8203541,81.0904637 71.4260509,76.7112766 C73.0871218,75.0502057 73.8421541,74.6726895 73.8421541,75.4277218 C73.8421541,76.1072508 73.162625,77.2397992 72.3320896,77.9948314 C70.8975283,79.2783863 70.8975283,79.4293927 72.1810831,81.543483 C74.823696,86.0736765 82.4495217,89.8488378 86.7532055,88.7162894 C89.6978313,87.8857539 93.623999,85.243141 94.0015151,83.5820701 C94.4545345,81.9965024 95.7380893,81.6189862 95.7380893,83.1290507 C95.7380893,84.4881088 92.1139345,88.1877668 89.9998442,88.9427991 C88.3387733,89.6223281 88.1877668,89.9998442 88.6407862,92.8689668 C90.8303797,109.32867 104.64747,118.69107 119.899121,114.160876 Z" id="node1"></path>
            </g>
            <g id="Group" transform="translate(112.462054, 58.477248) scale(-1, 1) rotate(-180.000000) translate(-112.462054, -58.477248) translate(1.585568, 1.585568)" fill="#FFFFFF">
                <path d="M103.363915,112.575309 C94.6055409,109.55518 88.5652829,101.702844 87.2062249,91.3589023 C86.7532055,88.4897797 86.904212,88.1122636 88.5652829,87.4327346 C90.6793732,86.6777023 94.303528,82.9780443 94.303528,81.6189862 C94.303528,80.1089217 93.0199732,80.4864379 92.5669539,82.0720056 C92.1894377,83.7330765 88.26327,86.3756894 85.3186443,87.2062249 C81.0149604,88.3387733 73.3891347,84.563612 70.7465218,80.0334185 C69.462967,77.9193282 69.462967,77.7683218 70.8975283,76.4847669 C71.7280638,75.7297347 72.4075928,74.5971863 72.4075928,73.9176573 C72.4075928,73.162625 71.6525605,73.5401412 69.9914896,75.2012121 C65.3857929,79.5803992 60.9311026,81.0149604 52.021722,81.0149604 C44.9999221,81.0149604 43.6408641,80.7884508 39.941206,79.0518766 C33.9764513,76.182754 29.8237739,72.2565863 27.181161,66.8958574 C24.5385481,61.6106316 24.2365352,59.4965413 26.1996191,59.4965413 C26.8791481,59.4965413 27.86069,59.1945284 28.3892126,58.8925155 C28.842232,58.5905026 25.7465997,58.3639929 21.5939224,58.3639929 C12.3825289,58.2884897 8.4563612,56.7784252 3.69965803,51.4176962 C-1.5100645,45.5284447 -1.13254838,38.582148 4.60569673,32.9949093 C6.26676768,31.4093416 9.43790313,29.4462578 11.7029999,28.5402191 C16.2331934,26.8791481 24.840561,26.4261288 24.840561,27.86069 C24.840561,28.3892126 26.1996191,27.181161 27.86069,25.2935804 C31.4848448,21.140903 34.88249,19.8573482 40.0922125,20.5368772 C42.6593221,20.9143933 43.7163673,20.8388901 43.3388512,20.2348643 C43.1123415,19.8573482 42.3573092,19.4798321 41.7532834,19.4798321 C41.1492576,19.4798321 40.6962383,19.0268127 40.6962383,18.4982901 C40.6962383,17.1392321 44.9999221,12.8355483 47.7935414,11.3254838 C51.1156833,9.58890958 59.7985542,9.6644128 63.9512316,11.4764902 L67.122367,12.9110515 L71.0485347,9.13589023 C82.3740185,-1.5100645 98.984728,-2.94462578 111.820276,5.51173543 L114.840405,7.5503225 L112.348799,9.6644128 C110.914238,10.7969612 110.008199,12.0050128 110.310212,12.3070257 C110.612225,12.6090386 111.593767,12.080516 112.575309,11.1744773 C113.55685,10.2684386 116.501476,8.4563612 119.219592,7.17280638 C123.523276,5.1342193 125.108844,4.75670318 131.828631,4.5301935 C140.209489,4.15267738 144.135657,5.05871608 150.77994,8.7583741 C155.536644,11.400987 161.652405,17.5922514 163.388979,21.5939224 C164.899043,24.9160643 166.560114,26.0486126 165.578572,23.1039869 C164.597031,19.8573482 164.899043,19.1023159 167.919172,17.5922514 C172.298359,15.4026579 181.585256,15.5536644 186.945985,17.8942643 C191.325172,19.8573482 197.36543,25.7465997 198.195966,28.842232 C198.422475,29.8992771 198.950998,30.8053158 199.328514,30.8053158 C200.234553,30.8053158 200.15905,29.8237739 199.253011,27.4076707 C198.573482,25.6710965 198.724488,25.3690836 200.461062,24.7650578 C205.972798,22.6509675 213.74963,24.7650578 217.902307,29.521761 C222.508004,34.7314835 222.961023,40.8472447 219.185862,47.2650189 C215.108688,54.2113156 204.16072,56.4009091 196.987914,51.6442059 C193.590269,49.3791092 191.702688,49.6056188 194.722817,51.9462188 C196.459391,53.3052769 198.346972,54.1358123 201.669114,55.2683607 C202.877166,55.6458768 202.877166,55.9478897 201.971127,59.043522 C197.893953,72.5585992 184.152366,81.3924766 167.16414,81.3924766 C157.877244,81.3924766 151.610476,79.3538895 147.080282,74.8991992 C145.041695,72.8606121 143.380624,71.6525605 143.380624,72.0300767 C143.380624,73.0871218 147.608805,77.5418121 150.175915,79.2783863 L152.063495,80.4864379 L150.553431,83.4310636 C148.514844,87.2817281 142.625592,91.2078958 138.774928,91.2078958 C135.905805,91.2078958 135.830302,91.1323926 135.830302,88.5652829 C135.830302,87.1307217 135.528289,85.9226701 135.07527,85.9226701 C134.697753,85.9226701 134.320237,87.7347475 134.320237,89.9998442 C134.320237,96.9461409 132.357153,101.551838 127.147431,106.837063 C123.523276,110.461218 121.635696,111.744773 118.46456,112.650812 C113.405844,114.160876 107.818605,114.160876 103.363915,112.575309 Z" id="node3"></path>
            </g>
        </g>
        <g id="Cloud1" transform="translate(544.000000, 192.000000)" fill-rule="nonzero">
            <g id="Group" transform="translate(112.462054, 58.439496) scale(-1, 1) rotate(-180.000000) translate(-112.462054, -58.439496) translate(0.151006, -0.000000)" fill="#3E3E3E">
                <path d="M105.175992,115.821947 C95.6625861,112.801818 88.6407862,104.345457 87.6592442,94.5300377 C87.2817281,90.7548765 87.0552184,90.4528636 85.243141,90.4528636 C81.3924766,90.4528636 77.3908056,88.7917926 74.144167,85.7716636 C72.3320896,84.1105927 70.6710186,82.1475088 70.4445089,81.3169733 C69.9914896,79.9579153 69.9159864,79.9579153 67.1978703,81.3169733 C59.7985542,84.9411281 49.9076317,85.3186443 41.9797931,82.223012 C34.6559803,79.3538895 27.4076707,71.6525605 25.4445868,64.5552574 C24.7650578,62.063651 24.6140514,61.9881477 20.0838579,61.5351284 C7.39931605,60.40258 -2.26509675,49.983135 0.528522575,40.4697286 C2.7181161,33.2969222 11.0234709,27.7851868 20.8388901,27.181161 C26.0486126,26.8791481 26.9546513,26.5771352 29.5972642,24.3120385 C32.3908835,21.8959353 36.3170512,20.2348643 39.3371802,20.2348643 C40.0167093,20.2348643 40.6207351,19.9328514 40.6207351,19.4798321 C40.6207351,18.120774 45.4529415,13.3640708 48.4730705,11.7029999 C52.5502446,9.58890958 60.8555994,9.43790313 65.2347864,11.400987 L68.3304186,12.8355483 L71.8790702,9.3623999 C78.2968443,3.17113545 89.4713216,-0.75503225 98.0786893,0.15100645 C103.288412,0.679529025 109.479676,2.86912255 113.934367,5.81374833 L117.256508,8.00334185 L122.541734,6.19126445 C132.583663,2.79361933 145.494715,4.15267738 153.875573,9.51340635 C155.763153,10.721458 159.009792,13.4395741 161.199385,15.6291676 L165.125553,19.5553353 L168.749708,17.9697676 C173.95943,15.7046708 179.848682,15.2516515 185.209411,16.761716 C190.268127,18.2717805 192.457721,19.5553353 196.308385,23.1039869 C198.875495,25.5200901 199.253011,25.6710965 201.518108,24.840561 C209.974469,21.8959353 219.714385,26.2751223 223.33854,34.6559803 C226.811688,42.8858318 223.036527,51.7197091 214.278153,55.6458768 C212.390572,56.4764123 209.596953,57.2314446 208.086888,57.2314446 C205.595282,57.2314446 205.217766,57.4579542 205.217766,58.9680187 C205.217766,59.8740574 204.236224,62.74318 202.952669,65.3857929 C195.855366,80.4864379 174.41245,88.4142765 156.367179,82.6005282 C155.159127,82.223012 154.630605,82.3740185 154.630605,83.0535475 C154.630605,85.0166314 149.949405,90.5283668 147.004779,92.0384313 C145.419211,92.7934635 142.550089,93.6995022 140.738011,93.9260119 C137.491373,94.3790313 137.491373,94.4545345 136.283321,98.7582183 C132.659166,111.820276 118.011541,119.823618 105.175992,115.821947 Z M119.899121,114.160876 C123.070257,113.254838 124.957837,111.971283 128.581992,108.347128 C133.791715,103.061902 135.754799,98.4562054 135.754799,91.5099087 C135.754799,89.244812 136.132315,87.4327346 136.509831,87.4327346 C136.96285,87.4327346 137.264863,88.6407862 137.264863,90.0753474 C137.264863,92.6424571 137.340366,92.7179603 140.209489,92.7179603 C144.060153,92.7179603 149.949405,88.7917926 151.987992,84.9411281 L153.498056,81.9965024 L151.610476,80.7884508 C149.043366,79.0518766 144.815186,74.5971863 144.815186,73.5401412 C144.815186,73.162625 146.476257,74.3706766 148.514844,76.4092637 C153.045037,80.863954 159.311805,82.9025411 168.598701,82.9025411 C185.586927,82.9025411 199.328514,74.0686637 203.405688,60.5535865 C204.311727,57.4579542 204.311727,57.1559413 203.103675,56.7784252 C199.781533,55.6458768 197.893953,54.8153414 196.157379,53.4562833 C193.13725,51.1156833 195.02483,50.8891737 198.422475,53.1542704 C205.595282,57.9109736 216.543249,55.7213801 220.620424,48.7750834 C224.395585,42.3573092 223.942565,36.241548 219.336869,31.0318255 C215.184191,26.2751223 207.407359,24.161032 201.895624,26.2751223 C200.15905,26.8791481 200.008043,27.181161 200.687572,28.9177352 C201.593611,31.3338384 201.669114,32.3153803 200.763075,32.3153803 C200.385559,32.3153803 199.857037,31.4093416 199.630527,30.3522965 C198.799991,27.2566642 192.759733,21.3674127 188.380546,19.4043288 C183.019817,17.0637289 173.732921,16.9127224 169.353734,19.1023159 C166.333605,20.6123804 166.031592,21.3674127 167.013134,24.6140514 C167.994676,27.5586771 166.333605,26.4261288 164.82354,23.1039869 C163.086966,19.1023159 156.971205,12.9110515 152.214502,10.2684386 C145.570218,6.56878058 141.64405,5.66274188 133.263192,6.040258 C126.543405,6.26676768 124.957837,6.6442838 120.654154,8.68287088 C117.936037,9.9664257 114.991412,11.7785031 114.00987,12.6845418 C113.028328,13.5905805 112.046786,14.1191031 111.744773,13.8170902 C111.44276,13.5150773 112.348799,12.3070257 113.78336,11.1744773 L116.274967,9.060387 L113.254838,7.02179993 C100.419289,-1.43456128 83.8085798,-2.40779618e-15 72.483096,10.6459547 L68.5569283,14.421116 L65.3857929,12.9865547 C61.2331155,11.1744773 52.5502446,11.0989741 49.2281027,12.8355483 C46.4344834,14.3456128 42.1307996,18.6492966 42.1307996,20.0083546 C42.1307996,20.5368772 42.5838189,20.9898966 43.1878447,20.9898966 C43.7918705,20.9898966 44.5469028,21.3674127 44.7734124,21.7449288 C45.1509286,22.3489546 44.0938834,22.4244578 41.5267738,22.0469417 C36.3170512,21.3674127 32.9194061,22.6509675 29.2952513,26.8036449 C27.6341804,28.6912255 26.2751223,29.8992771 26.2751223,29.3707545 C26.2751223,27.9361933 17.6677547,28.3892126 13.1375612,30.0502836 C1.8120774,34.2784642 -1.88758063,44.9244189 5.1342193,52.9277607 C9.89092248,58.2884897 13.8170902,59.7985542 23.0284836,59.8740574 C27.181161,59.8740574 30.2767932,60.1005671 29.8237739,60.40258 C29.2952513,60.7045929 28.3137094,61.0066058 27.6341804,61.0066058 C25.6710965,61.0066058 25.9731094,63.1206961 28.6157223,68.4059219 C31.2583352,73.7666508 35.4110125,77.6928185 41.3757673,80.5619411 C45.0754253,82.2985153 46.4344834,82.5250249 53.4562833,82.5250249 C62.3656639,82.5250249 66.8203541,81.0904637 71.4260509,76.7112766 C73.0871218,75.0502057 73.8421541,74.6726895 73.8421541,75.4277218 C73.8421541,76.1072508 73.162625,77.2397992 72.3320896,77.9948314 C70.8975283,79.2783863 70.8975283,79.4293927 72.1810831,81.543483 C74.823696,86.0736765 82.4495217,89.8488378 86.7532055,88.7162894 C89.6978313,87.8857539 93.623999,85.243141 94.0015151,83.5820701 C94.4545345,81.9965024 95.7380893,81.6189862 95.7380893,83.1290507 C95.7380893,84.4881088 92.1139345,88.1877668 89.9998442,88.9427991 C88.3387733,89.6223281 88.1877668,89.9998442 88.6407862,92.8689668 C90.8303797,109.32867 104.64747,118.69107 119.899121,114.160876 Z" id="node1"></path>
            </g>
            <g id="Group" transform="translate(112.462054, 58.477248) scale(-1, 1) rotate(-180.000000) translate(-112.462054, -58.477248) translate(1.585568, 1.585568)" fill="#FFFFFF">
                <path d="M103.363915,112.575309 C94.6055409,109.55518 88.5652829,101.702844 87.2062249,91.3589023 C86.7532055,88.4897797 86.904212,88.1122636 88.5652829,87.4327346 C90.6793732,86.6777023 94.303528,82.9780443 94.303528,81.6189862 C94.303528,80.1089217 93.0199732,80.4864379 92.5669539,82.0720056 C92.1894377,83.7330765 88.26327,86.3756894 85.3186443,87.2062249 C81.0149604,88.3387733 73.3891347,84.563612 70.7465218,80.0334185 C69.462967,77.9193282 69.462967,77.7683218 70.8975283,76.4847669 C71.7280638,75.7297347 72.4075928,74.5971863 72.4075928,73.9176573 C72.4075928,73.162625 71.6525605,73.5401412 69.9914896,75.2012121 C65.3857929,79.5803992 60.9311026,81.0149604 52.021722,81.0149604 C44.9999221,81.0149604 43.6408641,80.7884508 39.941206,79.0518766 C33.9764513,76.182754 29.8237739,72.2565863 27.181161,66.8958574 C24.5385481,61.6106316 24.2365352,59.4965413 26.1996191,59.4965413 C26.8791481,59.4965413 27.86069,59.1945284 28.3892126,58.8925155 C28.842232,58.5905026 25.7465997,58.3639929 21.5939224,58.3639929 C12.3825289,58.2884897 8.4563612,56.7784252 3.69965803,51.4176962 C-1.5100645,45.5284447 -1.13254838,38.582148 4.60569673,32.9949093 C6.26676768,31.4093416 9.43790313,29.4462578 11.7029999,28.5402191 C16.2331934,26.8791481 24.840561,26.4261288 24.840561,27.86069 C24.840561,28.3892126 26.1996191,27.181161 27.86069,25.2935804 C31.4848448,21.140903 34.88249,19.8573482 40.0922125,20.5368772 C42.6593221,20.9143933 43.7163673,20.8388901 43.3388512,20.2348643 C43.1123415,19.8573482 42.3573092,19.4798321 41.7532834,19.4798321 C41.1492576,19.4798321 40.6962383,19.0268127 40.6962383,18.4982901 C40.6962383,17.1392321 44.9999221,12.8355483 47.7935414,11.3254838 C51.1156833,9.58890958 59.7985542,9.6644128 63.9512316,11.4764902 L67.122367,12.9110515 L71.0485347,9.13589023 C82.3740185,-1.5100645 98.984728,-2.94462578 111.820276,5.51173543 L114.840405,7.5503225 L112.348799,9.6644128 C110.914238,10.7969612 110.008199,12.0050128 110.310212,12.3070257 C110.612225,12.6090386 111.593767,12.080516 112.575309,11.1744773 C113.55685,10.2684386 116.501476,8.4563612 119.219592,7.17280638 C123.523276,5.1342193 125.108844,4.75670318 131.828631,4.5301935 C140.209489,4.15267738 144.135657,5.05871608 150.77994,8.7583741 C155.536644,11.400987 161.652405,17.5922514 163.388979,21.5939224 C164.899043,24.9160643 166.560114,26.0486126 165.578572,23.1039869 C164.597031,19.8573482 164.899043,19.1023159 167.919172,17.5922514 C172.298359,15.4026579 181.585256,15.5536644 186.945985,17.8942643 C191.325172,19.8573482 197.36543,25.7465997 198.195966,28.842232 C198.422475,29.8992771 198.950998,30.8053158 199.328514,30.8053158 C200.234553,30.8053158 200.15905,29.8237739 199.253011,27.4076707 C198.573482,25.6710965 198.724488,25.3690836 200.461062,24.7650578 C205.972798,22.6509675 213.74963,24.7650578 217.902307,29.521761 C222.508004,34.7314835 222.961023,40.8472447 219.185862,47.2650189 C215.108688,54.2113156 204.16072,56.4009091 196.987914,51.6442059 C193.590269,49.3791092 191.702688,49.6056188 194.722817,51.9462188 C196.459391,53.3052769 198.346972,54.1358123 201.669114,55.2683607 C202.877166,55.6458768 202.877166,55.9478897 201.971127,59.043522 C197.893953,72.5585992 184.152366,81.3924766 167.16414,81.3924766 C157.877244,81.3924766 151.610476,79.3538895 147.080282,74.8991992 C145.041695,72.8606121 143.380624,71.6525605 143.380624,72.0300767 C143.380624,73.0871218 147.608805,77.5418121 150.175915,79.2783863 L152.063495,80.4864379 L150.553431,83.4310636 C148.514844,87.2817281 142.625592,91.2078958 138.774928,91.2078958 C135.905805,91.2078958 135.830302,91.1323926 135.830302,88.5652829 C135.830302,87.1307217 135.528289,85.9226701 135.07527,85.9226701 C134.697753,85.9226701 134.320237,87.7347475 134.320237,89.9998442 C134.320237,96.9461409 132.357153,101.551838 127.147431,106.837063 C123.523276,110.461218 121.635696,111.744773 118.46456,112.650812 C113.405844,114.160876 107.818605,114.160876 103.363915,112.575309 Z" id="node3"></path>
            </g>
        </g>
        <g id="Cloud1" transform="translate(971.000000, 236.000000)" fill-rule="nonzero">
            <g id="Group" transform="translate(112.462054, 58.439496) scale(-1, 1) rotate(-180.000000) translate(-112.462054, -58.439496) translate(0.151006, -0.000000)" fill="#3E3E3E">
                <path d="M105.175992,115.821947 C95.6625861,112.801818 88.6407862,104.345457 87.6592442,94.5300377 C87.2817281,90.7548765 87.0552184,90.4528636 85.243141,90.4528636 C81.3924766,90.4528636 77.3908056,88.7917926 74.144167,85.7716636 C72.3320896,84.1105927 70.6710186,82.1475088 70.4445089,81.3169733 C69.9914896,79.9579153 69.9159864,79.9579153 67.1978703,81.3169733 C59.7985542,84.9411281 49.9076317,85.3186443 41.9797931,82.223012 C34.6559803,79.3538895 27.4076707,71.6525605 25.4445868,64.5552574 C24.7650578,62.063651 24.6140514,61.9881477 20.0838579,61.5351284 C7.39931605,60.40258 -2.26509675,49.983135 0.528522575,40.4697286 C2.7181161,33.2969222 11.0234709,27.7851868 20.8388901,27.181161 C26.0486126,26.8791481 26.9546513,26.5771352 29.5972642,24.3120385 C32.3908835,21.8959353 36.3170512,20.2348643 39.3371802,20.2348643 C40.0167093,20.2348643 40.6207351,19.9328514 40.6207351,19.4798321 C40.6207351,18.120774 45.4529415,13.3640708 48.4730705,11.7029999 C52.5502446,9.58890958 60.8555994,9.43790313 65.2347864,11.400987 L68.3304186,12.8355483 L71.8790702,9.3623999 C78.2968443,3.17113545 89.4713216,-0.75503225 98.0786893,0.15100645 C103.288412,0.679529025 109.479676,2.86912255 113.934367,5.81374833 L117.256508,8.00334185 L122.541734,6.19126445 C132.583663,2.79361933 145.494715,4.15267738 153.875573,9.51340635 C155.763153,10.721458 159.009792,13.4395741 161.199385,15.6291676 L165.125553,19.5553353 L168.749708,17.9697676 C173.95943,15.7046708 179.848682,15.2516515 185.209411,16.761716 C190.268127,18.2717805 192.457721,19.5553353 196.308385,23.1039869 C198.875495,25.5200901 199.253011,25.6710965 201.518108,24.840561 C209.974469,21.8959353 219.714385,26.2751223 223.33854,34.6559803 C226.811688,42.8858318 223.036527,51.7197091 214.278153,55.6458768 C212.390572,56.4764123 209.596953,57.2314446 208.086888,57.2314446 C205.595282,57.2314446 205.217766,57.4579542 205.217766,58.9680187 C205.217766,59.8740574 204.236224,62.74318 202.952669,65.3857929 C195.855366,80.4864379 174.41245,88.4142765 156.367179,82.6005282 C155.159127,82.223012 154.630605,82.3740185 154.630605,83.0535475 C154.630605,85.0166314 149.949405,90.5283668 147.004779,92.0384313 C145.419211,92.7934635 142.550089,93.6995022 140.738011,93.9260119 C137.491373,94.3790313 137.491373,94.4545345 136.283321,98.7582183 C132.659166,111.820276 118.011541,119.823618 105.175992,115.821947 Z M119.899121,114.160876 C123.070257,113.254838 124.957837,111.971283 128.581992,108.347128 C133.791715,103.061902 135.754799,98.4562054 135.754799,91.5099087 C135.754799,89.244812 136.132315,87.4327346 136.509831,87.4327346 C136.96285,87.4327346 137.264863,88.6407862 137.264863,90.0753474 C137.264863,92.6424571 137.340366,92.7179603 140.209489,92.7179603 C144.060153,92.7179603 149.949405,88.7917926 151.987992,84.9411281 L153.498056,81.9965024 L151.610476,80.7884508 C149.043366,79.0518766 144.815186,74.5971863 144.815186,73.5401412 C144.815186,73.162625 146.476257,74.3706766 148.514844,76.4092637 C153.045037,80.863954 159.311805,82.9025411 168.598701,82.9025411 C185.586927,82.9025411 199.328514,74.0686637 203.405688,60.5535865 C204.311727,57.4579542 204.311727,57.1559413 203.103675,56.7784252 C199.781533,55.6458768 197.893953,54.8153414 196.157379,53.4562833 C193.13725,51.1156833 195.02483,50.8891737 198.422475,53.1542704 C205.595282,57.9109736 216.543249,55.7213801 220.620424,48.7750834 C224.395585,42.3573092 223.942565,36.241548 219.336869,31.0318255 C215.184191,26.2751223 207.407359,24.161032 201.895624,26.2751223 C200.15905,26.8791481 200.008043,27.181161 200.687572,28.9177352 C201.593611,31.3338384 201.669114,32.3153803 200.763075,32.3153803 C200.385559,32.3153803 199.857037,31.4093416 199.630527,30.3522965 C198.799991,27.2566642 192.759733,21.3674127 188.380546,19.4043288 C183.019817,17.0637289 173.732921,16.9127224 169.353734,19.1023159 C166.333605,20.6123804 166.031592,21.3674127 167.013134,24.6140514 C167.994676,27.5586771 166.333605,26.4261288 164.82354,23.1039869 C163.086966,19.1023159 156.971205,12.9110515 152.214502,10.2684386 C145.570218,6.56878058 141.64405,5.66274188 133.263192,6.040258 C126.543405,6.26676768 124.957837,6.6442838 120.654154,8.68287088 C117.936037,9.9664257 114.991412,11.7785031 114.00987,12.6845418 C113.028328,13.5905805 112.046786,14.1191031 111.744773,13.8170902 C111.44276,13.5150773 112.348799,12.3070257 113.78336,11.1744773 L116.274967,9.060387 L113.254838,7.02179993 C100.419289,-1.43456128 83.8085798,-2.40779618e-15 72.483096,10.6459547 L68.5569283,14.421116 L65.3857929,12.9865547 C61.2331155,11.1744773 52.5502446,11.0989741 49.2281027,12.8355483 C46.4344834,14.3456128 42.1307996,18.6492966 42.1307996,20.0083546 C42.1307996,20.5368772 42.5838189,20.9898966 43.1878447,20.9898966 C43.7918705,20.9898966 44.5469028,21.3674127 44.7734124,21.7449288 C45.1509286,22.3489546 44.0938834,22.4244578 41.5267738,22.0469417 C36.3170512,21.3674127 32.9194061,22.6509675 29.2952513,26.8036449 C27.6341804,28.6912255 26.2751223,29.8992771 26.2751223,29.3707545 C26.2751223,27.9361933 17.6677547,28.3892126 13.1375612,30.0502836 C1.8120774,34.2784642 -1.88758063,44.9244189 5.1342193,52.9277607 C9.89092248,58.2884897 13.8170902,59.7985542 23.0284836,59.8740574 C27.181161,59.8740574 30.2767932,60.1005671 29.8237739,60.40258 C29.2952513,60.7045929 28.3137094,61.0066058 27.6341804,61.0066058 C25.6710965,61.0066058 25.9731094,63.1206961 28.6157223,68.4059219 C31.2583352,73.7666508 35.4110125,77.6928185 41.3757673,80.5619411 C45.0754253,82.2985153 46.4344834,82.5250249 53.4562833,82.5250249 C62.3656639,82.5250249 66.8203541,81.0904637 71.4260509,76.7112766 C73.0871218,75.0502057 73.8421541,74.6726895 73.8421541,75.4277218 C73.8421541,76.1072508 73.162625,77.2397992 72.3320896,77.9948314 C70.8975283,79.2783863 70.8975283,79.4293927 72.1810831,81.543483 C74.823696,86.0736765 82.4495217,89.8488378 86.7532055,88.7162894 C89.6978313,87.8857539 93.623999,85.243141 94.0015151,83.5820701 C94.4545345,81.9965024 95.7380893,81.6189862 95.7380893,83.1290507 C95.7380893,84.4881088 92.1139345,88.1877668 89.9998442,88.9427991 C88.3387733,89.6223281 88.1877668,89.9998442 88.6407862,92.8689668 C90.8303797,109.32867 104.64747,118.69107 119.899121,114.160876 Z" id="node1"></path>
            </g>
            <g id="Group" transform="translate(112.462054, 58.477248) scale(-1, 1) rotate(-180.000000) translate(-112.462054, -58.477248) translate(1.585568, 1.585568)" fill="#FFFFFF">
                <path d="M103.363915,112.575309 C94.6055409,109.55518 88.5652829,101.702844 87.2062249,91.3589023 C86.7532055,88.4897797 86.904212,88.1122636 88.5652829,87.4327346 C90.6793732,86.6777023 94.303528,82.9780443 94.303528,81.6189862 C94.303528,80.1089217 93.0199732,80.4864379 92.5669539,82.0720056 C92.1894377,83.7330765 88.26327,86.3756894 85.3186443,87.2062249 C81.0149604,88.3387733 73.3891347,84.563612 70.7465218,80.0334185 C69.462967,77.9193282 69.462967,77.7683218 70.8975283,76.4847669 C71.7280638,75.7297347 72.4075928,74.5971863 72.4075928,73.9176573 C72.4075928,73.162625 71.6525605,73.5401412 69.9914896,75.2012121 C65.3857929,79.5803992 60.9311026,81.0149604 52.021722,81.0149604 C44.9999221,81.0149604 43.6408641,80.7884508 39.941206,79.0518766 C33.9764513,76.182754 29.8237739,72.2565863 27.181161,66.8958574 C24.5385481,61.6106316 24.2365352,59.4965413 26.1996191,59.4965413 C26.8791481,59.4965413 27.86069,59.1945284 28.3892126,58.8925155 C28.842232,58.5905026 25.7465997,58.3639929 21.5939224,58.3639929 C12.3825289,58.2884897 8.4563612,56.7784252 3.69965803,51.4176962 C-1.5100645,45.5284447 -1.13254838,38.582148 4.60569673,32.9949093 C6.26676768,31.4093416 9.43790313,29.4462578 11.7029999,28.5402191 C16.2331934,26.8791481 24.840561,26.4261288 24.840561,27.86069 C24.840561,28.3892126 26.1996191,27.181161 27.86069,25.2935804 C31.4848448,21.140903 34.88249,19.8573482 40.0922125,20.5368772 C42.6593221,20.9143933 43.7163673,20.8388901 43.3388512,20.2348643 C43.1123415,19.8573482 42.3573092,19.4798321 41.7532834,19.4798321 C41.1492576,19.4798321 40.6962383,19.0268127 40.6962383,18.4982901 C40.6962383,17.1392321 44.9999221,12.8355483 47.7935414,11.3254838 C51.1156833,9.58890958 59.7985542,9.6644128 63.9512316,11.4764902 L67.122367,12.9110515 L71.0485347,9.13589023 C82.3740185,-1.5100645 98.984728,-2.94462578 111.820276,5.51173543 L114.840405,7.5503225 L112.348799,9.6644128 C110.914238,10.7969612 110.008199,12.0050128 110.310212,12.3070257 C110.612225,12.6090386 111.593767,12.080516 112.575309,11.1744773 C113.55685,10.2684386 116.501476,8.4563612 119.219592,7.17280638 C123.523276,5.1342193 125.108844,4.75670318 131.828631,4.5301935 C140.209489,4.15267738 144.135657,5.05871608 150.77994,8.7583741 C155.536644,11.400987 161.652405,17.5922514 163.388979,21.5939224 C164.899043,24.9160643 166.560114,26.0486126 165.578572,23.1039869 C164.597031,19.8573482 164.899043,19.1023159 167.919172,17.5922514 C172.298359,15.4026579 181.585256,15.5536644 186.945985,17.8942643 C191.325172,19.8573482 197.36543,25.7465997 198.195966,28.842232 C198.422475,29.8992771 198.950998,30.8053158 199.328514,30.8053158 C200.234553,30.8053158 200.15905,29.8237739 199.253011,27.4076707 C198.573482,25.6710965 198.724488,25.3690836 200.461062,24.7650578 C205.972798,22.6509675 213.74963,24.7650578 217.902307,29.521761 C222.508004,34.7314835 222.961023,40.8472447 219.185862,47.2650189 C215.108688,54.2113156 204.16072,56.4009091 196.987914,51.6442059 C193.590269,49.3791092 191.702688,49.6056188 194.722817,51.9462188 C196.459391,53.3052769 198.346972,54.1358123 201.669114,55.2683607 C202.877166,55.6458768 202.877166,55.9478897 201.971127,59.043522 C197.893953,72.5585992 184.152366,81.3924766 167.16414,81.3924766 C157.877244,81.3924766 151.610476,79.3538895 147.080282,74.8991992 C145.041695,72.8606121 143.380624,71.6525605 143.380624,72.0300767 C143.380624,73.0871218 147.608805,77.5418121 150.175915,79.2783863 L152.063495,80.4864379 L150.553431,83.4310636 C148.514844,87.2817281 142.625592,91.2078958 138.774928,91.2078958 C135.905805,91.2078958 135.830302,91.1323926 135.830302,88.5652829 C135.830302,87.1307217 135.528289,85.9226701 135.07527,85.9226701 C134.697753,85.9226701 134.320237,87.7347475 134.320237,89.9998442 C134.320237,96.9461409 132.357153,101.551838 127.147431,106.837063 C123.523276,110.461218 121.635696,111.744773 118.46456,112.650812 C113.405844,114.160876 107.818605,114.160876 103.363915,112.575309 Z" id="node3"></path>
            </g>
        </g>
        <g id="Cloud1" transform="translate(746.000000, 75.000000)" fill-rule="nonzero">
            <g id="Group" transform="translate(112.462054, 58.439496) scale(-1, 1) rotate(-180.000000) translate(-112.462054, -58.439496) translate(0.151006, -0.000000)" fill="#3E3E3E">
                <path d="M105.175992,115.821947 C95.6625861,112.801818 88.6407862,104.345457 87.6592442,94.5300377 C87.2817281,90.7548765 87.0552184,90.4528636 85.243141,90.4528636 C81.3924766,90.4528636 77.3908056,88.7917926 74.144167,85.7716636 C72.3320896,84.1105927 70.6710186,82.1475088 70.4445089,81.3169733 C69.9914896,79.9579153 69.9159864,79.9579153 67.1978703,81.3169733 C59.7985542,84.9411281 49.9076317,85.3186443 41.9797931,82.223012 C34.6559803,79.3538895 27.4076707,71.6525605 25.4445868,64.5552574 C24.7650578,62.063651 24.6140514,61.9881477 20.0838579,61.5351284 C7.39931605,60.40258 -2.26509675,49.983135 0.528522575,40.4697286 C2.7181161,33.2969222 11.0234709,27.7851868 20.8388901,27.181161 C26.0486126,26.8791481 26.9546513,26.5771352 29.5972642,24.3120385 C32.3908835,21.8959353 36.3170512,20.2348643 39.3371802,20.2348643 C40.0167093,20.2348643 40.6207351,19.9328514 40.6207351,19.4798321 C40.6207351,18.120774 45.4529415,13.3640708 48.4730705,11.7029999 C52.5502446,9.58890958 60.8555994,9.43790313 65.2347864,11.400987 L68.3304186,12.8355483 L71.8790702,9.3623999 C78.2968443,3.17113545 89.4713216,-0.75503225 98.0786893,0.15100645 C103.288412,0.679529025 109.479676,2.86912255 113.934367,5.81374833 L117.256508,8.00334185 L122.541734,6.19126445 C132.583663,2.79361933 145.494715,4.15267738 153.875573,9.51340635 C155.763153,10.721458 159.009792,13.4395741 161.199385,15.6291676 L165.125553,19.5553353 L168.749708,17.9697676 C173.95943,15.7046708 179.848682,15.2516515 185.209411,16.761716 C190.268127,18.2717805 192.457721,19.5553353 196.308385,23.1039869 C198.875495,25.5200901 199.253011,25.6710965 201.518108,24.840561 C209.974469,21.8959353 219.714385,26.2751223 223.33854,34.6559803 C226.811688,42.8858318 223.036527,51.7197091 214.278153,55.6458768 C212.390572,56.4764123 209.596953,57.2314446 208.086888,57.2314446 C205.595282,57.2314446 205.217766,57.4579542 205.217766,58.9680187 C205.217766,59.8740574 204.236224,62.74318 202.952669,65.3857929 C195.855366,80.4864379 174.41245,88.4142765 156.367179,82.6005282 C155.159127,82.223012 154.630605,82.3740185 154.630605,83.0535475 C154.630605,85.0166314 149.949405,90.5283668 147.004779,92.0384313 C145.419211,92.7934635 142.550089,93.6995022 140.738011,93.9260119 C137.491373,94.3790313 137.491373,94.4545345 136.283321,98.7582183 C132.659166,111.820276 118.011541,119.823618 105.175992,115.821947 Z M119.899121,114.160876 C123.070257,113.254838 124.957837,111.971283 128.581992,108.347128 C133.791715,103.061902 135.754799,98.4562054 135.754799,91.5099087 C135.754799,89.244812 136.132315,87.4327346 136.509831,87.4327346 C136.96285,87.4327346 137.264863,88.6407862 137.264863,90.0753474 C137.264863,92.6424571 137.340366,92.7179603 140.209489,92.7179603 C144.060153,92.7179603 149.949405,88.7917926 151.987992,84.9411281 L153.498056,81.9965024 L151.610476,80.7884508 C149.043366,79.0518766 144.815186,74.5971863 144.815186,73.5401412 C144.815186,73.162625 146.476257,74.3706766 148.514844,76.4092637 C153.045037,80.863954 159.311805,82.9025411 168.598701,82.9025411 C185.586927,82.9025411 199.328514,74.0686637 203.405688,60.5535865 C204.311727,57.4579542 204.311727,57.1559413 203.103675,56.7784252 C199.781533,55.6458768 197.893953,54.8153414 196.157379,53.4562833 C193.13725,51.1156833 195.02483,50.8891737 198.422475,53.1542704 C205.595282,57.9109736 216.543249,55.7213801 220.620424,48.7750834 C224.395585,42.3573092 223.942565,36.241548 219.336869,31.0318255 C215.184191,26.2751223 207.407359,24.161032 201.895624,26.2751223 C200.15905,26.8791481 200.008043,27.181161 200.687572,28.9177352 C201.593611,31.3338384 201.669114,32.3153803 200.763075,32.3153803 C200.385559,32.3153803 199.857037,31.4093416 199.630527,30.3522965 C198.799991,27.2566642 192.759733,21.3674127 188.380546,19.4043288 C183.019817,17.0637289 173.732921,16.9127224 169.353734,19.1023159 C166.333605,20.6123804 166.031592,21.3674127 167.013134,24.6140514 C167.994676,27.5586771 166.333605,26.4261288 164.82354,23.1039869 C163.086966,19.1023159 156.971205,12.9110515 152.214502,10.2684386 C145.570218,6.56878058 141.64405,5.66274188 133.263192,6.040258 C126.543405,6.26676768 124.957837,6.6442838 120.654154,8.68287088 C117.936037,9.9664257 114.991412,11.7785031 114.00987,12.6845418 C113.028328,13.5905805 112.046786,14.1191031 111.744773,13.8170902 C111.44276,13.5150773 112.348799,12.3070257 113.78336,11.1744773 L116.274967,9.060387 L113.254838,7.02179993 C100.419289,-1.43456128 83.8085798,-2.40779618e-15 72.483096,10.6459547 L68.5569283,14.421116 L65.3857929,12.9865547 C61.2331155,11.1744773 52.5502446,11.0989741 49.2281027,12.8355483 C46.4344834,14.3456128 42.1307996,18.6492966 42.1307996,20.0083546 C42.1307996,20.5368772 42.5838189,20.9898966 43.1878447,20.9898966 C43.7918705,20.9898966 44.5469028,21.3674127 44.7734124,21.7449288 C45.1509286,22.3489546 44.0938834,22.4244578 41.5267738,22.0469417 C36.3170512,21.3674127 32.9194061,22.6509675 29.2952513,26.8036449 C27.6341804,28.6912255 26.2751223,29.8992771 26.2751223,29.3707545 C26.2751223,27.9361933 17.6677547,28.3892126 13.1375612,30.0502836 C1.8120774,34.2784642 -1.88758063,44.9244189 5.1342193,52.9277607 C9.89092248,58.2884897 13.8170902,59.7985542 23.0284836,59.8740574 C27.181161,59.8740574 30.2767932,60.1005671 29.8237739,60.40258 C29.2952513,60.7045929 28.3137094,61.0066058 27.6341804,61.0066058 C25.6710965,61.0066058 25.9731094,63.1206961 28.6157223,68.4059219 C31.2583352,73.7666508 35.4110125,77.6928185 41.3757673,80.5619411 C45.0754253,82.2985153 46.4344834,82.5250249 53.4562833,82.5250249 C62.3656639,82.5250249 66.8203541,81.0904637 71.4260509,76.7112766 C73.0871218,75.0502057 73.8421541,74.6726895 73.8421541,75.4277218 C73.8421541,76.1072508 73.162625,77.2397992 72.3320896,77.9948314 C70.8975283,79.2783863 70.8975283,79.4293927 72.1810831,81.543483 C74.823696,86.0736765 82.4495217,89.8488378 86.7532055,88.7162894 C89.6978313,87.8857539 93.623999,85.243141 94.0015151,83.5820701 C94.4545345,81.9965024 95.7380893,81.6189862 95.7380893,83.1290507 C95.7380893,84.4881088 92.1139345,88.1877668 89.9998442,88.9427991 C88.3387733,89.6223281 88.1877668,89.9998442 88.6407862,92.8689668 C90.8303797,109.32867 104.64747,118.69107 119.899121,114.160876 Z" id="node1"></path>
            </g>
            <g id="Group" transform="translate(112.462054, 58.477248) scale(-1, 1) rotate(-180.000000) translate(-112.462054, -58.477248) translate(1.585568, 1.585568)" fill="#FFFFFF">
                <path d="M103.363915,112.575309 C94.6055409,109.55518 88.5652829,101.702844 87.2062249,91.3589023 C86.7532055,88.4897797 86.904212,88.1122636 88.5652829,87.4327346 C90.6793732,86.6777023 94.303528,82.9780443 94.303528,81.6189862 C94.303528,80.1089217 93.0199732,80.4864379 92.5669539,82.0720056 C92.1894377,83.7330765 88.26327,86.3756894 85.3186443,87.2062249 C81.0149604,88.3387733 73.3891347,84.563612 70.7465218,80.0334185 C69.462967,77.9193282 69.462967,77.7683218 70.8975283,76.4847669 C71.7280638,75.7297347 72.4075928,74.5971863 72.4075928,73.9176573 C72.4075928,73.162625 71.6525605,73.5401412 69.9914896,75.2012121 C65.3857929,79.5803992 60.9311026,81.0149604 52.021722,81.0149604 C44.9999221,81.0149604 43.6408641,80.7884508 39.941206,79.0518766 C33.9764513,76.182754 29.8237739,72.2565863 27.181161,66.8958574 C24.5385481,61.6106316 24.2365352,59.4965413 26.1996191,59.4965413 C26.8791481,59.4965413 27.86069,59.1945284 28.3892126,58.8925155 C28.842232,58.5905026 25.7465997,58.3639929 21.5939224,58.3639929 C12.3825289,58.2884897 8.4563612,56.7784252 3.69965803,51.4176962 C-1.5100645,45.5284447 -1.13254838,38.582148 4.60569673,32.9949093 C6.26676768,31.4093416 9.43790313,29.4462578 11.7029999,28.5402191 C16.2331934,26.8791481 24.840561,26.4261288 24.840561,27.86069 C24.840561,28.3892126 26.1996191,27.181161 27.86069,25.2935804 C31.4848448,21.140903 34.88249,19.8573482 40.0922125,20.5368772 C42.6593221,20.9143933 43.7163673,20.8388901 43.3388512,20.2348643 C43.1123415,19.8573482 42.3573092,19.4798321 41.7532834,19.4798321 C41.1492576,19.4798321 40.6962383,19.0268127 40.6962383,18.4982901 C40.6962383,17.1392321 44.9999221,12.8355483 47.7935414,11.3254838 C51.1156833,9.58890958 59.7985542,9.6644128 63.9512316,11.4764902 L67.122367,12.9110515 L71.0485347,9.13589023 C82.3740185,-1.5100645 98.984728,-2.94462578 111.820276,5.51173543 L114.840405,7.5503225 L112.348799,9.6644128 C110.914238,10.7969612 110.008199,12.0050128 110.310212,12.3070257 C110.612225,12.6090386 111.593767,12.080516 112.575309,11.1744773 C113.55685,10.2684386 116.501476,8.4563612 119.219592,7.17280638 C123.523276,5.1342193 125.108844,4.75670318 131.828631,4.5301935 C140.209489,4.15267738 144.135657,5.05871608 150.77994,8.7583741 C155.536644,11.400987 161.652405,17.5922514 163.388979,21.5939224 C164.899043,24.9160643 166.560114,26.0486126 165.578572,23.1039869 C164.597031,19.8573482 164.899043,19.1023159 167.919172,17.5922514 C172.298359,15.4026579 181.585256,15.5536644 186.945985,17.8942643 C191.325172,19.8573482 197.36543,25.7465997 198.195966,28.842232 C198.422475,29.8992771 198.950998,30.8053158 199.328514,30.8053158 C200.234553,30.8053158 200.15905,29.8237739 199.253011,27.4076707 C198.573482,25.6710965 198.724488,25.3690836 200.461062,24.7650578 C205.972798,22.6509675 213.74963,24.7650578 217.902307,29.521761 C222.508004,34.7314835 222.961023,40.8472447 219.185862,47.2650189 C215.108688,54.2113156 204.16072,56.4009091 196.987914,51.6442059 C193.590269,49.3791092 191.702688,49.6056188 194.722817,51.9462188 C196.459391,53.3052769 198.346972,54.1358123 201.669114,55.2683607 C202.877166,55.6458768 202.877166,55.9478897 201.971127,59.043522 C197.893953,72.5585992 184.152366,81.3924766 167.16414,81.3924766 C157.877244,81.3924766 151.610476,79.3538895 147.080282,74.8991992 C145.041695,72.8606121 143.380624,71.6525605 143.380624,72.0300767 C143.380624,73.0871218 147.608805,77.5418121 150.175915,79.2783863 L152.063495,80.4864379 L150.553431,83.4310636 C148.514844,87.2817281 142.625592,91.2078958 138.774928,91.2078958 C135.905805,91.2078958 135.830302,91.1323926 135.830302,88.5652829 C135.830302,87.1307217 135.528289,85.9226701 135.07527,85.9226701 C134.697753,85.9226701 134.320237,87.7347475 134.320237,89.9998442 C134.320237,96.9461409 132.357153,101.551838 127.147431,106.837063 C123.523276,110.461218 121.635696,111.744773 118.46456,112.650812 C113.405844,114.160876 107.818605,114.160876 103.363915,112.575309 Z" id="node3"></path>
            </g>
        </g>
    </g>
</svg>