<?xml version="1.0" encoding="UTF-8"?>
<svg width="1050px" height="58px" viewBox="0 0 1024 58" version="1.1" xmlns="http://www.w3.org/2000/svg" xmlns:xlink="http://www.w3.org/1999/xlink">
    <!-- Generator: Sketch 42 (36781) - http://www.bohemiancoding.com/sketch -->
    <title>Slice</title>
    <desc>Created with Sketch.</desc>
    <defs>
        <rect id="path-1" x="0" y="1" width="1024" height="58"></rect>
        <mask id="mask-2" maskContentUnits="userSpaceOnUse" maskUnits="objectBoundingBox" x="0" y="0" width="1024" height="58" fill="white">
            <use xlink:href="#path-1"></use>
        </mask>
        <rect id="path-3" x="0" y="1" width="1024" height="9"></rect>
        <mask id="mask-4" maskContentUnits="userSpaceOnUse" maskUnits="objectBoundingBox" x="0" y="0" width="1024" height="9" fill="white">
            <use xlink:href="#path-3"></use>
        </mask>
    </defs>
    <g id="Page-1" stroke="none" stroke-width="1" fill="none" fill-rule="evenodd">
        <g id="Rectangle" style="mix-blend-mode: soft-light;">
            <use fill="#065C49" fill-rule="evenodd" style="mix-blend-mode: hue;" xlink:href="#path-1"></use>
            <use stroke="#979797" mask="url(#mask-2)" stroke-width="2" xlink:href="#path-1"></use>
            <use stroke="#979797" stroke-width="1" xlink:href="#path-1"></use>
        </g>
        <use id="Rectangle-2" stroke="#6C6262" mask="url(#mask-4)" stroke-width="2" fill="#6C6262" xlink:href="#path-3"></use>
        <polygon id="Star" stroke="#979797" fill="#D3C119" points="43.5 39.75 34.9771138 43.6127124 36.6048403 35.4313562 29.7096805 29.6372876 39.2385569 28.4436438 43.5 21 47.7614431 28.4436438 57.2903195 29.6372876 50.3951597 35.4313562 52.0228862 43.6127124"></polygon>
        <polygon id="Star" stroke="#979797" fill="#D3C119" points="96.5 48.75 87.9771138 52.6127124 89.6048403 44.4313562 82.7096805 38.6372876 92.2385569 37.4436438 96.5 30 100.761443 37.4436438 110.290319 38.6372876 103.39516 44.4313562 105.022886 52.6127124"></polygon>
        <polygon id="Star" stroke="#979797" fill="#D3C119" points="155.5 39.75 146.977114 43.6127124 148.60484 35.4313562 141.709681 29.6372876 151.238557 28.4436438 155.5 21 159.761443 28.4436438 169.290319 29.6372876 162.39516 35.4313562 164.022886 43.6127124"></polygon>
        <polygon id="Star" stroke="#979797" fill="#D3C119" points="238.5 40.75 229.977114 44.6127124 231.60484 36.4313562 224.709681 30.6372876 234.238557 29.4436438 238.5 22 242.761443 29.4436438 252.290319 30.6372876 245.39516 36.4313562 247.022886 44.6127124"></polygon>
        <polygon id="Star" stroke="#979797" fill="#D3C119" points="692.5 39.75 683.977114 43.6127124 685.60484 35.4313562 678.709681 29.6372876 688.238557 28.4436438 692.5 21 696.761443 28.4436438 706.290319 29.6372876 699.39516 35.4313562 701.022886 43.6127124"></polygon>
        <polygon id="Star" stroke="#979797" fill="#D3C119" points="552.5 39.75 543.977114 43.6127124 545.60484 35.4313562 538.709681 29.6372876 548.238557 28.4436438 552.5 21 556.761443 28.4436438 566.290319 29.6372876 559.39516 35.4313562 561.022886 43.6127124"></polygon>
        <polygon id="Star" stroke="#979797" fill="#D3C119" points="767.5 40.75 758.977114 44.6127124 760.60484 36.4313562 753.709681 30.6372876 763.238557 29.4436438 767.5 22 771.761443 29.4436438 781.290319 30.6372876 774.39516 36.4313562 776.022886 44.6127124"></polygon>
        <polygon id="Star" stroke="#979797" fill="#D3C119" points="860.5 51.75 851.977114 55.6127124 853.60484 47.4313562 846.709681 41.6372876 856.238557 40.4436438 860.5 33 864.761443 40.4436438 874.290319 41.6372876 867.39516 47.4313562 869.022886 55.6127124"></polygon>
        <polygon id="Star" stroke="#979797" fill="#D3C119" points="331.5 39.75 322.977114 43.6127124 324.60484 35.4313562 317.709681 29.6372876 327.238557 28.4436438 331.5 21 335.761443 28.4436438 345.290319 29.6372876 338.39516 35.4313562 340.022886 43.6127124"></polygon>
        <polygon id="Star" stroke="#979797" fill="#D3C119" points="935.5 40.75 926.977114 44.6127124 928.60484 36.4313562 921.709681 30.6372876 931.238557 29.4436438 935.5 22 939.761443 29.4436438 949.290319 30.6372876 942.39516 36.4313562 944.022886 44.6127124"></polygon>
        <polygon id="Star" stroke="#979797" fill="#D3C119" points="988.5 48.75 979.977114 52.6127124 981.60484 44.4313562 974.709681 38.6372876 984.238557 37.4436438 988.5 30 992.761443 37.4436438 1002.29032 38.6372876 995.39516 44.4313562 997.022886 52.6127124"></polygon>
        <polygon id="Star" stroke="#979797" fill="#D3C119" points="384.5 28.75 375.977114 32.6127124 377.60484 24.4313562 370.709681 18.6372876 380.238557 17.4436438 384.5 10 388.761443 17.4436438 398.290319 18.6372876 391.39516 24.4313562 393.022886 32.6127124"></polygon>
        <polygon id="Star" stroke="#979797" fill="#D3C119" points="605.5 48.75 596.977114 52.6127124 598.60484 44.4313562 591.709681 38.6372876 601.238557 37.4436438 605.5 30 609.761443 37.4436438 619.290319 38.6372876 612.39516 44.4313562 614.022886 52.6127124"></polygon>
        <polygon id="Star" stroke="#979797" fill="#D3C119" points="459.5 51.75 450.977114 55.6127124 452.60484 47.4313562 445.709681 41.6372876 455.238557 40.4436438 459.5 33 463.761443 40.4436438 473.290319 41.6372876 466.39516 47.4313562 468.022886 55.6127124"></polygon>
    </g>
</svg>
